<svg width="200" height="58" viewBox="0 0 200 58" fill="none" xmlns="http://www.w3.org/2000/svg">
<g clip-path="url(#clip0)">
<path d="M177.334 8.47765C177.07 8.4323 176.798 8.3879 176.522 8.34538L176.195 8.29814C175.735 8.23484 175.265 8.18193 174.793 8.13753C174.471 8.10635 174.15 8.08462 173.831 8.06572C173.261 8.03076 172.697 8.01659 172.155 8.01659C171.907 8.01659 171.766 8.02132 171.524 8.02415C171.067 8.03171 170.624 8.05249 170.187 8.08084C169.937 8.0969 169.693 8.11863 169.45 8.13941C169.091 8.17154 168.736 8.21027 168.387 8.25468L168.094 8.29436L167.771 8.3416L167.371 8.4049C167.196 8.43324 167.025 8.46348 166.855 8.49466C166.618 8.53906 166.382 8.5863 166.15 8.63449C164.719 8.93682 163.397 9.3393 162.174 9.81547C161.545 10.0611 160.936 10.3257 160.363 10.6091C159.884 10.8425 159.422 11.0853 158.98 11.3404C158.55 11.5888 158.136 11.8392 157.74 12.1056C157.511 12.2568 157.287 12.4108 157.069 12.5686C156.882 12.7037 156.696 12.8388 156.516 12.9786C156.135 13.2744 155.765 13.5739 155.42 13.8809C155.097 14.1672 154.782 14.4572 154.49 14.7482C154.238 15.0005 153.986 15.2556 153.746 15.523C153.506 15.7941 153.265 16.0672 153.034 16.3515C152.784 16.6614 152.537 16.9779 152.301 17.3058C152.127 17.5486 151.957 17.7952 151.793 18.0465C151.679 18.2166 151.572 18.3885 151.464 18.5624C150.835 19.5903 150.283 20.6919 149.832 21.8663C149.267 23.3307 148.859 24.9047 148.635 26.5808C148.565 27.107 148.51 27.6427 148.479 28.1907C148.456 28.6111 148.439 29.0372 148.439 29.469C148.439 29.7921 148.441 30.1115 148.462 30.427C148.484 30.7577 148.51 31.0827 148.547 31.4058L148.571 31.6326C148.62 32.0162 148.679 32.3931 148.75 32.7663C148.779 32.9099 148.809 33.0564 148.84 33.2009C148.906 33.5108 148.979 33.8169 149.06 34.1174C149.166 34.5076 149.278 34.8902 149.404 35.2663C149.56 35.7264 149.725 36.177 149.909 36.6135C150.2 37.308 150.517 37.974 150.861 38.6004C151.063 38.9689 151.27 39.3279 151.485 39.6709C151.658 39.9468 151.834 40.2094 152.014 40.4702C152.248 40.8103 152.493 41.1381 152.734 41.4499C152.989 41.7806 153.253 42.0895 153.508 42.3853C153.83 42.7537 154.154 43.092 154.465 43.4028L154.636 43.5681C154.894 43.8176 155.174 44.0878 155.498 44.3618C155.718 44.5488 155.946 44.7453 156.194 44.94C156.426 45.1214 156.664 45.3084 156.92 45.4908C157.224 45.7081 157.544 45.9311 157.884 46.1503C158.243 46.3808 158.621 46.6132 159.024 46.8381C159.821 47.284 160.699 47.712 161.667 48.1012C162.028 48.2449 162.402 48.3847 162.789 48.517C163.172 48.6473 163.564 48.7692 163.972 48.8873C164.665 49.0838 165.396 49.2605 166.162 49.4098C166.778 49.5298 167.42 49.629 168.084 49.7093C168.743 49.7886 169.425 49.851 170.134 49.886C170.477 49.903 170.825 49.9162 171.18 49.9219C171.342 49.9247 171.508 49.9285 171.671 49.9285C172.94 49.9285 174.112 49.8812 175.198 49.7905L175.412 49.7716C175.846 49.732 176.262 49.6866 176.668 49.6375C177.288 49.56 177.882 49.4674 178.444 49.3682C178.8 49.3021 179.143 49.2331 179.479 49.1622C179.998 49.0508 180.492 48.9298 180.964 48.8051C181.311 48.7135 181.648 48.6162 181.97 48.5188C182.358 48.4026 182.733 48.2789 183.085 48.1579L183.429 48.0379C183.599 47.9775 183.832 47.8943 184.107 47.7866C184.47 47.6449 184.909 47.472 185.406 47.2594C185.702 47.1319 186.025 46.9873 186.355 46.8343C186.648 46.702 186.96 46.5508 187.27 46.3997C187.402 46.3354 187.534 46.275 187.666 46.2079V38.47C187.578 38.5267 187.481 38.5834 187.39 38.6382L186.859 38.9594C186.33 39.2807 185.819 39.5811 185.306 39.8608C184.744 40.165 184.196 40.4465 183.653 40.7035C182.695 41.1542 181.779 41.5349 180.89 41.8533C179.206 42.458 177.655 42.8454 176.289 43.0816C176.129 43.1099 175.968 43.1364 175.811 43.1609C175.433 43.2205 175.074 43.2649 174.727 43.3026C174.186 43.3622 173.687 43.3924 173.234 43.4141C172.941 43.4264 172.667 43.433 172.412 43.433C171.864 43.433 171.299 43.4189 170.723 43.3782C170.05 43.331 169.363 43.2554 168.671 43.1383C167.552 42.9512 166.429 42.6659 165.33 42.269C165.169 42.2105 165.006 42.1443 164.844 42.0801C164.74 42.0404 164.631 41.9951 164.529 41.9516C164.348 41.8741 164.17 41.7976 163.991 41.7135C163.615 41.534 163.238 41.3422 162.871 41.1353C162.692 41.0314 162.514 40.9237 162.325 40.8075C162.142 40.6912 161.957 40.5713 161.779 40.4484C161.552 40.2897 161.329 40.1291 161.11 39.9571C160.902 39.7918 160.685 39.6151 160.506 39.4564L160.249 39.2259L160.121 39.1087L160.045 39.0369L159.951 38.9472C159.604 38.6014 159.285 38.2527 158.995 37.9041C158.832 37.7076 158.679 37.5111 158.534 37.3127C158.392 37.1237 158.263 36.9291 158.137 36.7401C158.017 36.5606 157.905 36.3754 157.799 36.195C157.638 35.921 157.493 35.647 157.359 35.3777C157.244 35.1463 157.14 34.9148 157.042 34.6862C156.876 34.2988 156.733 33.9039 156.614 33.5316C156.519 33.2406 156.441 32.9506 156.372 32.6719C156.17 31.865 156.064 31.1252 156.005 30.4988C155.984 30.2551 155.968 30.0312 155.958 29.8243C155.944 29.5144 155.939 29.246 155.939 29.0306C155.939 28.8889 155.941 28.7264 155.949 28.5393C155.966 28.0972 156.001 27.5379 156.093 26.8992C156.15 26.5118 156.229 26.0961 156.331 25.6615C156.4 25.3715 156.483 25.0795 156.575 24.7753C156.66 24.4994 156.759 24.2226 156.868 23.9382C156.939 23.7464 157.021 23.5556 157.104 23.3619C157.218 23.1002 157.344 22.8394 157.48 22.573C157.582 22.3746 157.696 22.1762 157.811 21.9749C158.066 21.5337 158.354 21.0963 158.68 20.6617C158.798 20.5067 158.919 20.3499 159.047 20.1959C159.21 19.9975 159.384 19.7944 159.565 19.6007C159.656 19.5043 159.747 19.4023 159.842 19.3059C161.259 17.8887 162.856 16.8268 164.508 16.0747C164.763 15.9585 165.025 15.8536 165.284 15.7497C165.549 15.6458 165.807 15.5532 166.074 15.4625C166.359 15.368 166.65 15.2792 166.937 15.1979C167.209 15.1224 167.485 15.0562 167.754 14.9929C168.026 14.9296 168.302 14.8767 168.571 14.8266C168.871 14.77 169.169 14.7265 169.466 14.6849C169.764 14.6471 170.061 14.615 170.354 14.5904C170.919 14.5413 171.473 14.5168 172.012 14.5168C172.194 14.5168 172.371 14.5149 172.551 14.5196C172.95 14.529 173.342 14.5423 173.724 14.5668C173.991 14.5857 174.249 14.6018 174.504 14.6254C174.993 14.6708 175.463 14.7312 175.91 14.7992C176.307 14.8588 176.693 14.9277 177.052 14.9977C177.609 15.1082 178.115 15.232 178.57 15.351C178.868 15.4285 179.14 15.5097 179.389 15.5834C179.763 15.6949 180.083 15.7951 180.332 15.881C180.762 16.0294 180.999 16.1172 180.999 16.1172C181.38 16.2523 181.75 16.4026 182.118 16.549C182.609 16.7455 183.078 16.96 183.529 17.1631C183.904 17.3313 184.259 17.507 184.594 17.6705C184.87 17.8046 185.126 17.9407 185.369 18.0654C185.792 18.2827 186.149 18.483 186.444 18.6417L187.233 19.0716V11.4755C187.233 11.4755 186.758 11.279 185.938 10.971C185.577 10.833 185.15 10.6715 184.665 10.4986C184.394 10.4041 184.111 10.3002 183.808 10.1991C183.568 10.1178 183.32 10.029 183.061 9.9468C182.772 9.85516 182.473 9.75501 182.162 9.66147C181.94 9.59534 181.709 9.52448 181.478 9.45834L181.27 9.39977C181.045 9.33552 180.817 9.27127 180.582 9.20892C180.308 9.13617 180.028 9.06437 179.743 8.99445L179.195 8.86218C178.895 8.79416 178.591 8.72708 178.283 8.66377C177.971 8.5948 177.652 8.53717 177.331 8.47859L177.334 8.47765ZM139.349 0.582031H199.644V57.3243H139.349V0.582031V0.582031ZM93.0087 31.8735V43.022H100.249C100.249 43.022 100.393 43.0183 100.63 43.0088C100.874 42.9994 101.219 42.9871 101.637 42.9521C102.426 42.8784 103.458 42.7348 104.461 42.3947C105.371 42.0886 106.257 41.6294 106.932 40.953C107.192 40.6931 107.407 40.422 107.581 40.148C108.148 39.2542 108.293 38.3434 108.324 37.8285C108.341 37.6056 108.34 37.4742 108.34 37.4742C108.34 37.4742 108.344 37.3741 108.34 37.2002C108.33 36.9848 108.306 36.5672 108.191 36.1213C108.054 35.5922 107.798 34.9781 107.344 34.4178C107.259 34.3111 107.165 34.2043 107.063 34.1032C106.865 33.9048 106.65 33.7121 106.413 33.5382C106.017 33.2472 105.563 32.9978 105.072 32.7843C104.422 32.5037 103.692 32.293 102.893 32.1418C102.484 32.0662 102.049 32.0029 101.606 31.9623C101.332 31.934 101.058 31.9151 100.772 31.899C100.525 31.883 100.264 31.8726 100.007 31.8726C97.4369 31.8726 93.0059 31.8697 93.0059 31.8697L93.0087 31.8735ZM93.0087 14.9192V25.4914H96.5139C96.5139 25.4914 96.7482 25.4914 97.0571 25.482C97.299 25.4744 97.5881 25.4574 97.846 25.4442C98.5669 25.3904 99.5655 25.2902 100.563 25.0115C100.758 24.9567 100.953 24.8962 101.145 24.8282C101.928 24.5495 102.678 24.1423 103.262 23.5688C103.725 23.1134 104.032 22.6051 104.235 22.1119C104.482 21.5073 104.569 20.9281 104.605 20.5181C104.637 20.1524 104.635 19.92 104.635 19.92C104.635 19.92 104.643 19.7452 104.628 19.4712C104.603 19.0102 104.508 18.2619 104.146 17.541C103.969 17.1952 103.73 16.8627 103.403 16.5396C103.009 16.1522 102.531 15.8527 102.016 15.625C101.029 15.1904 99.9 15.0165 98.9486 14.9542C98.5348 14.9258 98.1578 14.9192 97.8366 14.9192H93.0087V14.9192Z" fill="#909090"/>
<path d="M85.6881 8.53906V49.4041H101.072C101.072 49.4041 108.574 49.612 112.716 45.4681C116.087 42.0971 115.845 38.1961 115.845 38.1961C115.845 38.1961 116.088 34.124 112.966 31.0005C110.307 28.3419 106.91 27.6333 106.91 27.6333C106.91 27.6333 108.444 26.9134 109.623 25.7343C110.175 25.1816 112.138 23.4082 112.138 19.1037C112.138 14.7671 109.25 12.2729 109.25 12.2729C109.25 12.2729 106.09 8.53717 98.952 8.53717H85.6872V8.53906H85.6881ZM69.8723 0.582031H130.166V57.3243H69.8714V0.582031H69.8723ZM23.5322 31.8735V43.022H30.7721C30.7721 43.022 30.9167 43.0183 31.1538 43.0088C31.3995 42.9994 31.7424 42.9871 32.16 42.9521C32.9489 42.8784 33.9816 42.7348 34.985 42.3947C35.8948 42.0886 36.7801 41.6294 37.4546 40.953C37.7163 40.6931 37.9318 40.422 38.1037 40.148C38.6725 39.2542 38.8151 38.3434 38.8473 37.8285C38.8643 37.6056 38.8624 37.4742 38.8624 37.4742C38.8624 37.4742 38.8662 37.3741 38.8624 37.2002C38.8548 36.9848 38.8284 36.5672 38.714 36.1213C38.578 35.5922 38.3229 34.9781 37.8685 34.4178C37.7834 34.3111 37.6889 34.2043 37.5878 34.1032C37.3894 33.9048 37.175 33.7121 36.9388 33.5382C36.542 33.2472 36.0885 32.9978 35.5972 32.7843C34.9472 32.5037 34.2197 32.293 33.4185 32.1418C33.0094 32.0662 32.5757 32.0029 32.1317 31.9623C31.8577 31.934 31.5837 31.9151 31.2974 31.899C31.0499 31.883 30.7891 31.8726 30.5322 31.8726C27.9642 31.8726 23.5341 31.8697 23.5341 31.8697L23.5322 31.8735ZM23.5322 14.9192V25.4914H27.0374C27.0374 25.4914 27.2717 25.4914 27.5806 25.482C27.8234 25.4744 28.1116 25.4574 28.3686 25.4442C29.0895 25.3904 30.0881 25.2902 31.0858 25.0115C31.2804 24.9567 31.476 24.8962 31.6678 24.8282C32.4501 24.5495 33.2002 24.1423 33.7841 23.5688C34.2471 23.1134 34.5532 22.6051 34.7554 22.1119C35.0038 21.5073 35.0908 20.9281 35.1267 20.5181C35.1588 20.1524 35.1569 19.92 35.1569 19.92C35.1569 19.92 35.1635 19.7452 35.1493 19.4712C35.1248 19.0102 35.0284 18.2619 34.6675 17.541C34.4908 17.1952 34.2518 16.8627 33.9249 16.5396C33.5309 16.1522 33.0529 15.8527 32.5379 15.625C31.5516 15.1904 30.4216 15.0165 29.4702 14.9542C29.0573 14.9258 28.6804 14.9192 28.3591 14.9192H23.5312H23.5322Z" fill="#909090"/>
<path d="M16.2132 8.53906V49.4041H31.5963C31.5963 49.4041 39.098 49.612 43.2399 45.4681C46.6128 42.0971 46.3691 38.1961 46.3691 38.1961C46.3691 38.1961 46.6128 34.124 43.4912 31.0005C40.8316 28.3419 37.4351 27.6333 37.4351 27.6333C37.4351 27.6333 38.9704 26.9134 40.1486 25.7343C40.6994 25.1816 42.6636 23.4082 42.6636 19.1037C42.6636 14.7671 39.7773 12.2729 39.7773 12.2729C39.7773 12.2729 36.616 8.53717 29.4772 8.53717H16.2123V8.53906H16.2132ZM0.397429 0.582031H60.6902V57.3243H0.396484V0.582031H0.397429Z" fill="#909090"/>
</g>
<defs>
<clipPath id="clip0">
<rect y="0.382812" width="200" height="57.1429" fill="white"/>
</clipPath>
</defs>
</svg>
