<svg width="200" height="30" viewBox="0 0 200 30" fill="none" xmlns="http://www.w3.org/2000/svg">
<path fill-rule="evenodd" clip-rule="evenodd" d="M85.034 0.669978C84.8542 0.919411 84.5481 1.12349 84.3537 1.12349C84.1594 1.12349 83.8533 1.32757 83.6735 1.57701C83.4937 1.82644 83.1651 2.03052 82.9431 2.03052C82.7213 2.03052 82.5397 2.13256 82.5397 2.25728C82.5397 2.382 82.3581 2.48404 82.1363 2.48404C81.9143 2.48404 81.5857 2.68812 81.4059 2.93755C81.0692 3.4049 79.8186 3.58336 79.8186 3.16431C79.8186 3.03959 79.6145 2.93755 79.3651 2.93755C79.1156 2.93755 78.9116 2.83551 78.9116 2.71079C78.9116 2.58608 78.7299 2.48404 78.5082 2.48404C78.2862 2.48404 77.9576 2.27995 77.7778 2.03052C77.598 1.78109 77.2694 1.57701 77.0474 1.57701C76.8256 1.57701 76.644 1.47497 76.644 1.35025C76.644 1.22553 76.4399 1.12349 76.1905 1.12349C75.941 1.12349 75.737 1.02145 75.737 0.896735C75.737 0.772018 75.5329 0.669978 75.2834 0.669978C75.034 0.669978 74.8299 0.772018 74.8299 0.896735C74.8299 1.02145 74.6258 1.12349 74.3764 1.12349C74.127 1.12349 73.9229 1.22553 73.9229 1.35025C73.9229 1.47497 73.7188 1.57701 73.4694 1.57701C73.22 1.57701 73.0159 1.67905 73.0159 1.80376C73.0159 1.92848 72.8342 2.03052 72.6125 2.03052C72.3905 2.03052 72.0619 2.2346 71.8821 2.48404C71.7023 2.73347 71.3737 2.93755 71.1517 2.93755C70.9299 2.93755 70.7483 3.03959 70.7483 3.16431C70.7483 3.28903 70.5442 3.39107 70.2948 3.39107C70.0454 3.39107 69.8413 3.49311 69.8413 3.61782C69.8413 3.74254 69.4331 3.84458 68.9342 3.84458C68.4354 3.84458 68.0272 3.74254 68.0272 3.61782C68.0272 3.49311 67.8231 3.39107 67.5737 3.39107C67.3243 3.39107 67.1202 3.28903 67.1202 3.16431C67.1202 3.03959 66.9386 2.93755 66.7168 2.93755C66.4948 2.93755 66.1662 2.73347 65.9864 2.48404C65.8066 2.2346 65.478 2.03052 65.256 2.03052C65.0342 2.03052 64.8526 1.92848 64.8526 1.80376C64.8526 1.38472 63.602 1.56317 63.2653 2.03052C63.0855 2.27995 62.7794 2.48404 62.585 2.48404C62.3907 2.48404 62.0846 2.68812 61.9048 2.93755C61.7249 3.18698 61.4188 3.39107 61.2245 3.39107C61.0302 3.39107 60.724 3.59515 60.5442 3.84458C60.3644 4.09401 60.0358 4.2981 59.8138 4.2981C59.5921 4.2981 59.4104 4.45569 59.4104 4.64844C59.4104 5.07701 60.4102 6.11215 60.824 6.11215C60.9891 6.11215 61.2714 6.31624 61.4512 6.56567C61.6311 6.8151 61.9159 7.01918 62.0844 7.01918C62.9936 7.01918 63.0385 7.38653 63.0385 14.8262C63.0385 21.8339 63.029 21.9852 62.585 21.9852C62.3356 21.9852 62.1315 22.0872 62.1315 22.2119C62.1315 22.3366 61.9274 22.4387 61.678 22.4387C61.3757 22.4387 61.2245 22.5899 61.2245 22.8922C61.2245 23.1759 61.3757 23.3457 61.6279 23.3457C61.8499 23.3457 62.1785 23.5498 62.3583 23.7992C62.5381 24.0487 62.8667 24.2527 63.0887 24.2527C63.3104 24.2527 63.4921 24.3548 63.4921 24.4795C63.4921 24.6042 63.6961 24.7063 63.9456 24.7063C64.195 24.7063 64.3991 24.8083 64.3991 24.933C64.3991 25.0577 64.6032 25.1598 64.8526 25.1598C65.102 25.1598 65.3061 25.2618 65.3061 25.3865C65.3061 25.5112 65.5102 25.6133 65.7596 25.6133C66.0091 25.6133 66.2132 25.7153 66.2132 25.84C66.2132 25.9648 66.4088 26.0668 66.6478 26.0668C66.8868 26.0668 67.1419 26.1945 67.2147 26.3503C67.3204 26.577 67.3735 26.577 67.4791 26.3503C67.5519 26.1942 67.7846 26.0668 67.9961 26.0668C68.2075 26.0668 68.5277 25.8627 68.7075 25.6133C68.8873 25.3639 69.2159 25.1598 69.4379 25.1598C69.6596 25.1598 69.8413 25.0577 69.8413 24.933C69.8413 24.8083 70.0454 24.7063 70.2948 24.7063C70.5442 24.7063 70.7483 24.6042 70.7483 24.4795C70.7483 24.3548 70.9086 24.2527 71.1045 24.2527C71.3007 24.2527 71.6156 24.0981 71.8048 23.9088C72.1122 23.6015 72.0744 23.4954 71.4485 22.9108L70.7483 22.2568V19.3999V16.543H72.3356H73.9229V19.0373C73.9229 21.1537 73.8689 21.5317 73.5667 21.5317C73.1084 21.5317 72.5624 22.0777 72.5624 22.536C72.5624 22.741 72.7546 22.8922 73.0159 22.8922C73.2653 22.8922 73.4694 22.9942 73.4694 23.119C73.4694 23.2437 73.6735 23.3457 73.9229 23.3457C74.1723 23.3457 74.3764 23.4478 74.3764 23.5725C74.3764 23.6972 74.5805 23.7992 74.8299 23.7992C75.0794 23.7992 75.2834 23.9013 75.2834 24.026C75.2834 24.1507 75.4875 24.2527 75.737 24.2527C75.9864 24.2527 76.1905 24.3548 76.1905 24.4795C76.1905 24.6042 76.3946 24.7063 76.644 24.7063C76.8934 24.7063 77.0975 24.8083 77.0975 24.933C77.0975 25.0577 77.2791 25.1598 77.5009 25.1598C77.7229 25.1598 78.0515 25.3639 78.2313 25.6133C78.4111 25.8627 78.7313 26.0668 78.9426 26.0668C79.1542 26.0668 79.3868 26.1942 79.4596 26.3503C79.5653 26.577 79.6184 26.577 79.724 26.3503C79.7968 26.1942 80.0295 26.0668 80.241 26.0668C80.4524 26.0668 80.7726 25.8627 80.9524 25.6133C81.1322 25.3639 81.4383 25.1598 81.6327 25.1598C81.827 25.1598 82.1331 24.9557 82.3129 24.7063C82.4927 24.4568 82.8213 24.2527 83.0433 24.2527C83.2651 24.2527 83.4467 24.1507 83.4467 24.026C83.4467 23.9013 83.6508 23.7992 83.9002 23.7992C84.1614 23.7992 84.3537 23.648 84.3537 23.443C84.3537 23.0305 83.8227 22.4387 83.4526 22.4387C83.3134 22.4387 82.949 22.1881 82.6429 21.882C82.1129 21.3523 82.0862 21.1931 82.0862 18.5718V15.8178L82.7664 15.1825C83.1406 14.833 83.4467 14.4063 83.4467 14.2346C83.4467 14.0627 83.6508 13.775 83.9002 13.5951C84.1497 13.4153 84.3537 13.1092 84.3537 12.9149C84.3537 12.7205 84.5578 12.4144 84.8073 12.2346C85.5617 11.6908 85.334 11.5543 83.6735 11.5543H82.0862V8.15297C82.0862 6.03664 82.1719 4.75161 82.3129 4.75161C82.4376 4.75161 82.5397 4.85365 82.5397 4.97837C82.5397 5.10308 82.7438 5.20512 82.9932 5.20512C83.2426 5.20512 83.4467 5.30717 83.4467 5.43188C83.4467 5.5566 83.6508 5.65864 83.9002 5.65864C84.1497 5.65864 84.3537 5.76068 84.3537 5.8854C84.3537 6.01011 84.5578 6.11215 84.8073 6.11215C85.1095 6.11215 85.2608 6.2634 85.2608 6.56567C85.2608 6.8151 85.3628 7.01918 85.4875 7.01918C85.6345 7.01918 85.7143 9.87474 85.7143 15.1323C85.7143 22.9854 85.7288 23.2561 86.1678 23.5725C86.4172 23.7523 86.6213 24.0371 86.6213 24.2056C86.6213 24.6004 87.1807 25.1598 87.5755 25.1598C87.744 25.1598 88.0288 25.3639 88.2086 25.6133C88.3884 25.8627 88.7086 26.0668 88.92 26.0668C89.1315 26.0668 89.3642 26.1942 89.437 26.3503C89.5426 26.577 89.5957 26.577 89.7014 26.3503C89.7742 26.1945 89.9884 26.0668 90.1773 26.0668C90.3664 26.0668 90.807 25.7607 91.1565 25.3865C91.5059 25.0124 91.9326 24.7063 92.1043 24.7063C92.2762 24.7063 92.5639 24.5022 92.7438 24.2527C92.9236 24.0033 93.2084 23.7992 93.3769 23.7992C93.5453 23.7992 93.8367 23.6457 94.0245 23.458C94.3283 23.1541 94.2644 23.0194 93.4413 22.2285C92.9329 21.74 92.517 21.1795 92.517 20.9825C92.517 20.7856 92.415 20.6246 92.2902 20.6246C92.1433 20.6246 92.0635 17.7112 92.0635 12.3378V4.0507L91.5068 3.49424C91.2007 3.18812 90.7925 2.93755 90.5998 2.93755C90.407 2.93755 90.2494 2.83551 90.2494 2.71079C90.2494 2.58608 90.0453 2.48404 89.7959 2.48404C89.5465 2.48404 89.3424 2.382 89.3424 2.25728C89.3424 2.13256 89.1608 2.03052 88.939 2.03052C88.717 2.03052 88.3884 1.82644 88.2086 1.57701C88.0288 1.32757 87.7002 1.12349 87.4782 1.12349C87.2565 1.12349 87.0748 1.02145 87.0748 0.896735C87.0748 0.772018 86.8707 0.669978 86.6213 0.669978C86.3719 0.669978 86.1678 0.567937 86.1678 0.44322C86.1678 0.0423131 85.3717 0.201497 85.034 0.669978ZM121.372 1.4727C120.966 1.89719 120.635 2.40036 120.635 2.59107C120.635 2.78154 120.533 2.93755 120.408 2.93755C120.282 2.93755 120.181 3.54231 120.181 4.2981C120.181 5.05388 120.282 5.65864 120.408 5.65864C120.533 5.65864 120.635 5.81896 120.635 6.01488C120.635 6.21102 120.781 6.51714 120.959 6.69515C121.327 7.0634 122.449 7.13664 122.449 6.79243C122.449 6.66771 122.605 6.56567 122.797 6.56567C123.248 6.56567 124.717 5.09719 124.717 4.64571C124.717 4.45456 124.819 4.2981 124.943 4.2981C125.068 4.2981 125.17 3.72961 125.17 3.03483C125.17 1.7346 124.849 1.12349 124.166 1.12349C123.97 1.12349 123.81 1.02145 123.81 0.896735C123.81 0.772018 123.427 0.677007 122.959 0.685624C122.299 0.697642 121.944 0.873606 121.372 1.4727ZM135.601 1.35025C135.601 1.47497 135.295 1.57701 134.921 1.57701C134.546 1.57701 134.24 1.67905 134.24 1.80376C134.24 1.92848 133.934 2.03052 133.56 2.03052C133.186 2.03052 132.88 2.13256 132.88 2.25728C132.88 2.382 132.472 2.48404 131.973 2.48404C131.474 2.48404 131.066 2.58608 131.066 2.71079C131.066 2.83551 130.76 2.93755 130.385 2.93755C130.011 2.93755 129.705 3.03959 129.705 3.16431C129.705 3.28903 129.399 3.39107 129.025 3.39107C128.651 3.39107 128.345 3.45206 128.345 3.52689C128.345 3.6015 128.651 3.94866 129.025 4.2981L129.705 4.93347V13.4092C129.705 21.6249 129.691 21.8951 129.252 22.2119C129.002 22.3917 128.798 22.7203 128.798 22.9423C128.798 23.1945 128.968 23.3457 129.252 23.3457C129.501 23.3457 129.705 23.4478 129.705 23.5725C129.705 23.6972 129.909 23.7992 130.159 23.7992C130.408 23.7992 130.612 23.9013 130.612 24.026C130.612 24.1507 130.816 24.2527 131.066 24.2527C131.315 24.2527 131.519 24.3548 131.519 24.4795C131.519 24.6042 131.723 24.7063 131.973 24.7063C132.222 24.7063 132.426 24.8083 132.426 24.933C132.426 25.0577 132.63 25.1598 132.88 25.1598C133.129 25.1598 133.333 25.2618 133.333 25.3865C133.333 25.5112 133.639 25.6133 134.014 25.6133C134.388 25.6133 134.694 25.7153 134.694 25.84C134.694 26.2591 135.944 26.0806 136.281 25.6133C136.461 25.3639 136.749 25.1598 136.921 25.1598C137.092 25.1598 137.519 24.8537 137.868 24.4795C138.218 24.1054 138.667 23.7992 138.866 23.7992C139.066 23.7992 139.229 23.6416 139.229 23.4489C139.229 23.0453 138.239 21.9852 137.863 21.9852C137.247 21.9852 136.961 21.3076 136.961 19.8471C136.961 19.0049 136.863 18.3571 136.735 18.3571C136.61 18.3571 136.508 17.8468 136.508 17.2233C136.508 16.5997 136.61 16.0895 136.735 16.0895C136.881 16.0895 136.961 13.4439 136.961 8.60649V1.12349H136.281C135.907 1.12349 135.601 1.22553 135.601 1.35025ZM0 14.0487V24.7063H4.53515C7.40748 24.7063 9.07029 24.623 9.07029 24.4795C9.07029 24.3548 9.37642 24.2527 9.75057 24.2527C10.1247 24.2527 10.4308 24.1507 10.4308 24.026C10.4308 23.9013 10.5862 23.7992 10.776 23.7992C11.2249 23.7992 13.6054 21.4187 13.6054 20.9698C13.6054 20.78 13.7075 20.6246 13.8322 20.6246C13.9569 20.6246 14.059 20.4205 14.059 20.1711C14.059 19.9217 14.161 19.7176 14.2857 19.7176C14.4104 19.7176 14.5125 19.3094 14.5125 18.8106C14.5125 18.3117 14.6145 17.9035 14.7392 17.9035C14.881 17.9035 14.966 16.543 14.966 14.2754C14.966 12.0078 14.881 10.6473 14.7392 10.6473C14.6145 10.6473 14.5125 10.2391 14.5125 9.74027C14.5125 9.24141 14.4104 8.83324 14.2857 8.83324C14.161 8.83324 14.059 8.52712 14.059 8.15297C14.059 7.77882 13.9569 7.4727 13.8322 7.4727C13.7075 7.4727 13.6054 7.31737 13.6054 7.12757C13.6054 6.67859 11.2249 4.2981 10.776 4.2981C10.5862 4.2981 10.4308 4.19605 10.4308 4.07134C10.4308 3.94662 10.1247 3.84458 9.75057 3.84458C9.37642 3.84458 9.07029 3.74254 9.07029 3.61782C9.07029 3.47429 7.40748 3.39107 4.53515 3.39107H0V14.0487ZM37.6417 14.0487V24.7063H38.5488H39.4558V14.0487V3.39107H38.5488H37.6417V14.0487ZM32.6531 5.43188V6.56567H33.7868H34.9206V5.43188V4.2981H33.7868H32.6531V5.43188ZM81.6327 7.92621C81.6327 10.1938 81.5476 11.5543 81.4059 11.5543C81.2655 11.5543 81.1791 10.3512 81.1791 8.39855C81.1791 6.13392 81.1018 5.21714 80.9052 5.15161C80.7029 5.08426 80.7177 4.96272 80.9619 4.68789C81.1438 4.4829 81.3689 4.31147 81.4626 4.30671C81.5562 4.30195 81.6327 5.93075 81.6327 7.92621ZM8.16327 4.97837C8.16327 5.10308 8.46939 5.20512 8.84354 5.20512C9.21769 5.20512 9.52381 5.30717 9.52381 5.43188C9.52381 5.5566 9.68027 5.65864 9.87143 5.65864C10.3229 5.65864 11.7914 7.12712 11.7914 7.57859C11.7914 7.76975 11.8934 7.92621 12.0181 7.92621C12.1429 7.92621 12.2449 8.1303 12.2449 8.37973C12.2449 8.62916 12.3469 8.83324 12.4717 8.83324C12.5964 8.83324 12.6984 9.24141 12.6984 9.74027C12.6984 10.2391 12.8005 10.6473 12.9252 10.6473C13.0669 10.6473 13.1519 12.0078 13.1519 14.2754C13.1519 16.543 13.0669 17.9035 12.9252 17.9035C12.8005 17.9035 12.6984 18.3117 12.6984 18.8106C12.6984 19.3094 12.5964 19.7176 12.4717 19.7176C12.3469 19.7176 12.2449 19.8729 12.2449 20.0627C12.2449 20.6564 9.82993 22.8922 9.18866 22.8922C8.87415 22.8922 8.61678 22.9942 8.61678 23.119C8.61678 23.26 7.33175 23.3457 5.21542 23.3457H1.81406V14.0487V4.75161H4.98866C6.95397 4.75161 8.16327 4.838 8.16327 4.97837ZM70.2948 13.3684C70.2948 18.1076 70.2365 21.9852 70.1653 21.9852C70.0939 21.9852 69.8898 21.8394 69.7118 21.6611C69.4433 21.3929 69.3878 19.9734 69.3878 13.375C69.3878 5.51352 69.4492 4.79447 70.1247 4.76023C70.2184 4.75546 70.2948 8.62916 70.2948 13.3684ZM71.6553 5.43188C71.6553 5.5566 71.8594 5.65864 72.1088 5.65864C72.3583 5.65864 72.5624 5.76068 72.5624 5.8854C72.5624 6.01011 72.7227 6.11215 72.9186 6.11215C73.7268 6.11215 73.9229 6.68925 73.9229 9.06612C73.9229 11.3362 73.9122 11.3824 73.2426 12.0078C72.8685 12.3573 72.5624 12.784 72.5624 12.9557C72.5624 13.1276 72.3583 13.4153 72.1088 13.5951C71.8594 13.775 71.6553 14.0598 71.6553 14.2283C71.6553 14.5326 71.1258 15.1825 70.8778 15.1825C70.8066 15.1825 70.7483 12.9376 70.7483 10.1938C70.7483 5.35637 70.7621 5.20512 71.2018 5.20512C71.4512 5.20512 71.6553 5.30717 71.6553 5.43188ZM106.576 7.24594C106.576 7.37066 106.372 7.4727 106.122 7.4727C105.873 7.4727 105.669 7.57474 105.669 7.69946C105.669 7.82417 105.465 7.92621 105.215 7.92621C104.966 7.92621 104.762 8.02825 104.762 8.15297C104.762 8.27769 104.558 8.37973 104.308 8.37973C104.059 8.37973 103.855 8.48177 103.855 8.60649C103.855 8.7312 103.651 8.83324 103.401 8.83324C103.152 8.83324 102.948 8.93528 102.948 9.06C102.948 9.18472 102.744 9.28676 102.494 9.28676C102.245 9.28676 102.041 9.3888 102.041 9.51352C102.041 9.63823 101.859 9.74027 101.637 9.74027C101.415 9.74027 101.087 9.94435 100.907 10.1938C100.727 10.4432 100.442 10.6473 100.272 10.6473C100.103 10.6473 99.5723 11.0555 99.093 11.5543C98.6136 12.0532 98.0605 12.4614 97.8635 12.4614C97.6667 12.4614 97.5057 12.6224 97.5057 12.8192C97.5057 13.0162 97.0975 13.5693 96.5986 14.0487C96.0998 14.528 95.6916 15.0811 95.6916 15.2781C95.6916 15.475 95.5896 15.636 95.4649 15.636C95.3401 15.636 95.2381 15.9421 95.2381 16.3162C95.2381 16.6904 95.1361 16.9965 95.0113 16.9965C94.8739 16.9965 94.7846 17.979 94.7846 19.4908C94.7846 21.0026 94.8739 21.9852 95.0113 21.9852C95.1361 21.9852 95.2381 22.1668 95.2381 22.3886C95.2381 22.6106 95.4422 22.9391 95.6916 23.119C95.941 23.2988 96.1451 23.5836 96.1451 23.7521C96.1451 24.1469 96.7045 24.7063 97.0993 24.7063C97.2678 24.7063 97.5526 24.9103 97.7324 25.1598C97.9245 25.426 98.3195 25.6133 98.6896 25.6133C99.0361 25.6133 99.3197 25.7153 99.3197 25.84C99.3197 25.9648 99.8875 26.0668 100.582 26.0668C101.797 26.0668 101.884 26.0255 102.948 24.933C103.555 24.3094 104.174 23.7992 104.324 23.7992C104.473 23.7992 104.8 23.5695 105.049 23.289C105.357 22.943 105.536 22.87 105.605 23.0623C105.661 23.2183 105.902 23.3457 106.141 23.3457C106.38 23.3457 106.576 23.4478 106.576 23.5725C106.576 23.6972 106.78 23.7992 107.029 23.7992C107.279 23.7992 107.483 23.9013 107.483 24.026C107.483 24.1507 107.687 24.2527 107.937 24.2527C108.186 24.2527 108.39 24.3548 108.39 24.4795C108.39 24.6042 108.594 24.7063 108.844 24.7063C109.093 24.7063 109.297 24.8083 109.297 24.933C109.297 25.0577 109.501 25.1598 109.751 25.1598C110 25.1598 110.204 25.2618 110.204 25.3865C110.204 25.5112 110.408 25.6133 110.658 25.6133C110.907 25.6133 111.111 25.7153 111.111 25.84C111.111 25.9648 111.497 26.0668 111.968 26.0668C112.565 26.0668 112.924 25.9292 113.152 25.6133C113.332 25.3639 113.617 25.1598 113.787 25.1598C113.956 25.1598 114.487 24.7516 114.966 24.2527C115.445 23.7539 115.998 23.3457 116.195 23.3457C116.392 23.3457 116.553 23.1854 116.553 22.9895C116.553 22.5523 116.014 21.9852 115.599 21.9852C115.431 21.9852 115.146 21.7811 114.966 21.5317C114.786 21.2822 114.501 21.0781 114.333 21.0781C113.494 21.0781 113.379 20.5314 113.379 16.5369V12.6432L114.059 12.0078C114.818 11.2988 114.951 10.6473 114.336 10.6473C114.114 10.6473 113.785 10.4432 113.605 10.1938C113.426 9.94435 113.097 9.74027 112.875 9.74027C112.653 9.74027 112.472 9.63823 112.472 9.51352C112.472 9.3888 112.268 9.28676 112.018 9.28676C111.769 9.28676 111.565 9.18472 111.565 9.06C111.565 8.93528 111.361 8.83324 111.111 8.83324C110.862 8.83324 110.658 8.7312 110.658 8.60649C110.658 8.48177 110.454 8.37973 110.204 8.37973C109.955 8.37973 109.751 8.27769 109.751 8.15297C109.751 8.02825 109.546 7.92621 109.297 7.92621C109.048 7.92621 108.844 7.82417 108.844 7.69946C108.844 7.57474 108.639 7.4727 108.39 7.4727C108.141 7.4727 107.937 7.37066 107.937 7.24594C107.937 7.12122 107.63 7.01918 107.256 7.01918C106.882 7.01918 106.576 7.12122 106.576 7.24594ZM21.7687 8.15297C21.7687 8.27769 21.3605 8.37973 20.8617 8.37973C20.3628 8.37973 19.9546 8.48177 19.9546 8.60649C19.9546 8.7312 19.6485 8.83324 19.2744 8.83324C18.6696 8.83324 18.5941 8.90875 18.5941 9.51352C18.5941 10.1183 18.6696 10.1938 19.2744 10.1938C19.6485 10.1938 19.9546 10.0917 19.9546 9.96703C19.9546 9.84231 20.4649 9.74027 21.0884 9.74027C21.712 9.74027 22.2222 9.63823 22.2222 9.51352C22.2222 9.38744 22.827 9.28676 23.5828 9.28676C24.3385 9.28676 24.9433 9.38744 24.9433 9.51352C24.9433 9.63823 25.2018 9.74027 25.5177 9.74027C26.4159 9.74027 27.6644 11.1205 27.6644 12.1137C27.6644 12.5543 27.7664 12.9149 27.8912 12.9149C28.0172 12.9149 28.1179 13.5196 28.1179 14.2754C28.1179 15.8777 27.7775 16.0478 26.7574 14.9557C26.4079 14.5815 25.9587 14.2754 25.7594 14.2754C25.5599 14.2754 25.3968 14.1734 25.3968 14.0487C25.3968 13.9239 24.9887 13.8219 24.4898 13.8219C23.9909 13.8219 23.5828 13.7199 23.5828 13.5951C23.5828 13.4704 23.0726 13.3684 22.449 13.3684C21.8254 13.3684 21.3152 13.4704 21.3152 13.5951C21.3152 13.7199 20.9295 13.8219 20.4583 13.8219C19.8615 13.8219 19.502 13.9595 19.2744 14.2754C19.0946 14.5249 18.8122 14.7289 18.6472 14.7289C18.2333 14.7289 17.2336 15.7641 17.2336 16.1927C17.2336 16.3854 17.1315 16.543 17.0068 16.543C16.8821 16.543 16.78 16.8491 16.78 17.2233C16.78 17.5974 16.678 17.9035 16.5533 17.9035C16.4272 17.9035 16.3265 18.5083 16.3265 19.2641C16.3265 20.0199 16.4272 20.6246 16.5533 20.6246C16.678 20.6246 16.78 20.9307 16.78 21.3049C16.78 21.679 16.8821 21.9852 17.0068 21.9852C17.1315 21.9852 17.2336 22.1416 17.2336 22.3328C17.2336 22.7843 18.702 24.2527 19.1535 24.2527C19.3447 24.2527 19.5011 24.3548 19.5011 24.4795C19.5011 24.6042 19.9093 24.7063 20.4082 24.7063C20.907 24.7063 21.3152 24.8083 21.3152 24.933C21.3152 25.0577 21.8254 25.1598 22.449 25.1598C23.0726 25.1598 23.5828 25.0577 23.5828 24.933C23.5828 24.8083 23.8889 24.7063 24.263 24.7063C24.6372 24.7063 24.9433 24.6042 24.9433 24.4795C24.9433 24.3548 25.1474 24.2527 25.3968 24.2527C25.6463 24.2527 25.8503 24.1507 25.8503 24.026C25.8503 23.9013 26.0134 23.7992 26.2129 23.7992C26.4122 23.7992 26.8615 23.4931 27.2109 23.119C27.5603 22.7448 27.9075 22.4387 27.9821 22.4387C28.0569 22.4387 28.1179 22.9489 28.1179 23.5725C28.1179 24.6811 28.1331 24.7063 28.7982 24.7063H29.4785V17.9035C29.4785 13.5196 29.3977 11.1008 29.2517 11.1008C29.127 11.1008 29.0249 10.9444 29.0249 10.7532C29.0249 10.3017 27.5565 8.83324 27.105 8.83324C26.9138 8.83324 26.7574 8.7312 26.7574 8.60649C26.7574 8.48177 26.4512 8.37973 26.0771 8.37973C25.7029 8.37973 25.3968 8.27769 25.3968 8.15297C25.3968 8.02077 24.641 7.92621 23.5828 7.92621C22.5245 7.92621 21.7687 8.02077 21.7687 8.15297ZM119.048 8.37973C118.868 8.62916 118.562 8.83324 118.367 8.83324C118.173 8.83324 117.867 9.03733 117.687 9.28676C117.507 9.53619 117.225 9.74027 117.06 9.74027C116.695 9.74027 115.646 10.7541 115.646 11.1067C115.646 11.4768 116.238 12.0078 116.651 12.0078C116.846 12.0078 117.007 12.1099 117.007 12.2346C117.007 12.3593 117.211 12.4614 117.46 12.4614C117.898 12.4614 117.914 12.6126 117.914 16.7509C117.914 19.9795 117.984 21.0643 118.197 21.1376C118.376 21.199 118.21 21.4897 117.744 21.9276C117.338 22.3088 117.007 22.74 117.007 22.8861C117.007 23.2664 117.593 23.7992 118.011 23.7992C118.207 23.7992 118.367 23.9013 118.367 24.026C118.367 24.1507 118.571 24.2527 118.821 24.2527C119.07 24.2527 119.274 24.3548 119.274 24.4795C119.274 24.6042 119.478 24.7063 119.728 24.7063C119.977 24.7063 120.181 24.8083 120.181 24.933C120.181 25.0577 120.385 25.1598 120.635 25.1598C120.884 25.1598 121.088 25.2618 121.088 25.3865C121.088 25.5112 121.293 25.6133 121.542 25.6133C121.791 25.6133 121.995 25.7153 121.995 25.84C121.995 25.9648 122.191 26.0668 122.43 26.0668C122.669 26.0668 122.91 26.1942 122.966 26.3503C123.035 26.5425 123.214 26.4695 123.522 26.1235C123.772 25.843 124.102 25.6133 124.255 25.6133C124.409 25.6133 124.821 25.3072 125.17 24.933C125.519 24.5589 125.946 24.2527 126.118 24.2527C126.29 24.2527 126.578 24.0487 126.757 23.7992C126.937 23.5498 127.266 23.3457 127.488 23.3457C127.71 23.3457 127.891 23.2874 127.891 23.2162C127.891 22.9682 127.241 22.4387 126.937 22.4387C126.768 22.4387 126.484 22.2346 126.304 21.9852C126.124 21.7357 125.795 21.5317 125.573 21.5317C125.2 21.5317 125.17 21.197 125.17 17.0938C125.17 12.5813 125.272 12.0078 126.077 12.0078C126.345 12.0078 126.984 11.4598 126.984 11.2303C126.984 11.1591 126.78 11.1008 126.531 11.1008C126.281 11.1008 126.077 10.9988 126.077 10.8741C126.077 10.7493 125.873 10.6473 125.624 10.6473C125.374 10.6473 125.17 10.5453 125.17 10.4205C125.17 10.2958 124.966 10.1938 124.717 10.1938C124.467 10.1938 124.263 10.0917 124.263 9.96703C124.263 9.84231 124.081 9.74027 123.86 9.74027C123.638 9.74027 123.309 9.53619 123.129 9.28676C122.949 9.03733 122.621 8.83324 122.399 8.83324C122.177 8.83324 121.995 8.7312 121.995 8.60649C121.995 8.48177 121.791 8.37973 121.542 8.37973C121.293 8.37973 121.088 8.27769 121.088 8.15297C121.088 8.02825 120.703 7.92621 120.232 7.92621C119.635 7.92621 119.275 8.06386 119.048 8.37973ZM151.02 8.15297C151.02 8.27769 150.714 8.37973 150.34 8.37973C149.966 8.37973 149.66 8.48177 149.66 8.60649C149.66 8.7312 149.505 8.83324 149.315 8.83324C148.866 8.83324 146.485 11.2137 146.485 11.6627C146.485 11.8525 146.383 12.0078 146.258 12.0078C146.134 12.0078 146.032 12.416 146.032 12.9149C146.032 13.4137 145.93 13.8219 145.805 13.8219C145.666 13.8219 145.578 14.9557 145.578 16.7698C145.578 18.5838 145.666 19.7176 145.805 19.7176C145.93 19.7176 146.032 20.0237 146.032 20.3979C146.032 20.772 146.134 21.0781 146.258 21.0781C146.383 21.0781 146.485 21.2598 146.485 21.4815C146.485 21.7035 146.689 22.0321 146.939 22.2119C147.188 22.3917 147.392 22.6766 147.392 22.845C147.392 23.2602 147.959 23.7992 148.397 23.7992C148.593 23.7992 148.753 23.9013 148.753 24.026C148.753 24.1507 148.957 24.2527 149.206 24.2527C149.456 24.2527 149.66 24.3548 149.66 24.4795C149.66 24.6042 149.966 24.7063 150.34 24.7063C150.714 24.7063 151.02 24.8083 151.02 24.933C151.02 25.0675 151.852 25.1598 153.061 25.1598C154.271 25.1598 155.102 25.0675 155.102 24.933C155.102 24.8083 155.51 24.7063 156.009 24.7063C156.508 24.7063 156.916 24.6042 156.916 24.4795C156.916 24.3548 157.12 24.2527 157.37 24.2527C157.748 24.2527 157.823 24.1015 157.823 23.3457C157.823 22.8469 157.721 22.4387 157.596 22.4387C157.472 22.4387 157.37 22.5407 157.37 22.6654C157.37 22.7902 157.063 22.8922 156.689 22.8922C156.315 22.8922 156.009 22.9942 156.009 23.119C156.009 23.2437 155.499 23.3457 154.875 23.3457C154.252 23.3457 153.741 23.4478 153.741 23.5725C153.741 23.6972 153.435 23.7992 153.061 23.7992C152.687 23.7992 152.381 23.6972 152.381 23.5725C152.381 23.4478 151.973 23.3457 151.474 23.3457C150.975 23.3457 150.567 23.2437 150.567 23.119C150.567 22.9942 150.41 22.8922 150.219 22.8922C149.768 22.8922 148.299 21.4237 148.299 20.9722C148.299 20.7811 148.197 20.6246 148.073 20.6246C147.948 20.6246 147.846 20.3185 147.846 19.9444C147.846 19.5702 147.744 19.2641 147.619 19.2641C147.481 19.2641 147.392 18.2058 147.392 16.543C147.392 14.8802 147.481 13.8219 147.619 13.8219C147.744 13.8219 147.846 13.5158 147.846 13.1416C147.846 12.7675 147.948 12.4614 148.073 12.4614C148.197 12.4614 148.299 12.3049 148.299 12.1137C148.299 11.6623 149.768 10.1938 150.219 10.1938C150.41 10.1938 150.567 10.0917 150.567 9.96703C150.567 9.82848 151.625 9.74027 153.288 9.74027C154.951 9.74027 156.009 9.82848 156.009 9.96703C156.009 10.0917 156.213 10.1938 156.463 10.1938C156.712 10.1938 156.916 10.2958 156.916 10.4205C156.916 10.5453 157.018 10.6473 157.143 10.6473C157.491 10.6473 157.412 9.06998 157.046 8.70376C156.859 8.51737 156.281 8.37973 155.685 8.37973C155.115 8.37973 154.649 8.27769 154.649 8.15297C154.649 8.02077 153.893 7.92621 152.834 7.92621C151.776 7.92621 151.02 8.02077 151.02 8.15297ZM165.533 8.15297C165.533 8.27769 165.125 8.37973 164.626 8.37973C164.127 8.37973 163.719 8.48177 163.719 8.60649C163.719 8.7312 163.537 8.83324 163.315 8.83324C163.093 8.83324 162.765 9.03733 162.585 9.28676C162.405 9.53619 162.12 9.74027 161.952 9.74027C161.578 9.74027 160.998 10.2922 160.998 10.6473C160.998 10.7899 160.84 11.0645 160.646 11.2577C160.453 11.4509 160.236 11.9029 160.165 12.262C160.093 12.621 159.945 12.9149 159.836 12.9149C159.727 12.9149 159.637 13.5271 159.637 14.2754C159.637 15.0312 159.537 15.636 159.41 15.636C159.286 15.636 159.184 16.0441 159.184 16.543C159.184 17.0419 159.286 17.45 159.41 17.45C159.54 17.45 159.637 18.1303 159.637 19.0373C159.637 19.9444 159.734 20.6246 159.864 20.6246C159.989 20.6246 160.091 20.8287 160.091 21.0781C160.091 21.3276 160.193 21.5317 160.317 21.5317C160.442 21.5317 160.544 21.6874 160.544 21.8777C160.544 22.3278 162.469 24.2527 162.919 24.2527C163.11 24.2527 163.265 24.3548 163.265 24.4795C163.265 24.6042 163.673 24.7063 164.172 24.7063C164.671 24.7063 165.079 24.8083 165.079 24.933C165.079 25.0652 165.835 25.1598 166.893 25.1598C167.952 25.1598 168.707 25.0652 168.707 24.933C168.707 24.8083 169.014 24.7063 169.388 24.7063C169.762 24.7063 170.068 24.6042 170.068 24.4795C170.068 24.3548 170.272 24.2527 170.522 24.2527C170.771 24.2527 170.975 24.1507 170.975 24.026C170.975 23.9013 171.133 23.7992 171.325 23.7992C171.779 23.7992 172.789 22.7893 172.789 22.3355C172.789 22.1428 172.891 21.9852 173.016 21.9852C173.141 21.9852 173.243 21.7811 173.243 21.5317C173.243 21.2822 173.345 21.0781 173.469 21.0781C173.594 21.0781 173.696 20.772 173.696 20.3979C173.696 20.0237 173.798 19.7176 173.923 19.7176C174.064 19.7176 174.15 18.4326 174.15 16.3162C174.15 14.1999 174.064 12.9149 173.923 12.9149C173.798 12.9149 173.696 12.7108 173.696 12.4614C173.696 12.2119 173.594 12.0078 173.469 12.0078C173.345 12.0078 173.243 11.8038 173.243 11.5543C173.243 11.3049 173.141 11.1008 173.016 11.1008C172.891 11.1008 172.789 10.9432 172.789 10.7505C172.789 10.2967 171.779 9.28676 171.325 9.28676C171.133 9.28676 170.975 9.18472 170.975 9.06C170.975 8.93528 170.771 8.83324 170.522 8.83324C170.272 8.83324 170.068 8.7312 170.068 8.60649C170.068 8.48177 169.66 8.37973 169.161 8.37973C168.662 8.37973 168.254 8.27769 168.254 8.15297C168.254 8.02689 167.649 7.92621 166.893 7.92621C166.138 7.92621 165.533 8.02689 165.533 8.15297ZM183.22 8.15297C183.22 8.27769 182.812 8.37973 182.313 8.37973C181.814 8.37973 181.406 8.48177 181.406 8.60649C181.406 8.7312 181.202 8.83324 180.952 8.83324C180.703 8.83324 180.499 8.93528 180.499 9.06C180.499 9.18472 180.336 9.28676 180.136 9.28676C179.937 9.28676 179.488 9.59288 179.138 9.96703C178.789 10.3412 178.442 10.6473 178.367 10.6473C178.292 10.6473 178.231 10.2829 178.231 9.83755C178.231 8.88177 177.807 8.37973 177 8.37973H176.417V16.543V24.7063H177.324H178.231V18.5838C178.231 14.6534 178.312 12.4614 178.458 12.4614C178.583 12.4614 178.685 12.3038 178.685 12.111C178.685 11.6825 179.685 10.6473 180.098 10.6473C180.263 10.6473 180.546 10.4432 180.726 10.1938C180.953 9.87791 181.313 9.74027 181.91 9.74027C182.381 9.74027 182.766 9.63823 182.766 9.51352C182.766 9.3888 183.073 9.28676 183.447 9.28676C183.821 9.28676 184.127 9.3888 184.127 9.51352C184.127 9.63823 184.489 9.74027 184.931 9.74027C185.756 9.74027 186.523 10.2956 187.046 11.2734C187.219 11.5961 187.302 13.8539 187.302 18.2287V24.7063H188.209H189.116V18.5838C189.116 14.6534 189.197 12.4614 189.342 12.4614C189.467 12.4614 189.569 12.3038 189.569 12.111C189.569 11.6573 190.579 10.6473 191.033 10.6473C191.226 10.6473 191.383 10.5453 191.383 10.4205C191.383 10.2958 191.587 10.1938 191.837 10.1938C192.086 10.1938 192.29 10.0917 192.29 9.96703C192.29 9.84231 192.596 9.74027 192.971 9.74027C193.345 9.74027 193.651 9.63823 193.651 9.51352C193.651 9.3888 194.059 9.28676 194.558 9.28676C195.057 9.28676 195.465 9.3888 195.465 9.51352C195.465 9.63823 195.723 9.74027 196.039 9.74027C196.393 9.74027 196.917 10.0432 197.4 10.5264L198.186 11.3124V18.0094V24.7063H199.093H200V17.9035C200 13.5196 199.919 11.1008 199.773 11.1008C199.649 11.1008 199.546 10.945 199.546 10.7548C199.546 10.5643 199.09 9.95206 198.532 9.39424C197.714 8.57633 197.363 8.37973 196.718 8.37973C196.278 8.37973 195.918 8.27769 195.918 8.15297C195.918 8.02825 195.51 7.92621 195.011 7.92621C194.512 7.92621 194.104 8.02825 194.104 8.15297C194.104 8.27769 193.696 8.37973 193.197 8.37973C192.698 8.37973 192.29 8.48177 192.29 8.60649C192.29 8.7312 192.109 8.83324 191.887 8.83324C191.665 8.83324 191.336 9.03733 191.156 9.28676C190.977 9.53619 190.692 9.74027 190.523 9.74027C190.15 9.74027 189.569 10.2922 189.569 10.6473C189.569 10.9149 189.021 11.5543 188.792 11.5543C188.72 11.5543 188.662 11.3502 188.662 11.1008C188.662 10.8514 188.56 10.6473 188.435 10.6473C188.311 10.6473 188.209 10.4897 188.209 10.297C188.209 9.84322 187.199 8.83324 186.745 8.83324C186.552 8.83324 186.395 8.7312 186.395 8.60649C186.395 8.48177 186.088 8.37973 185.714 8.37973C185.34 8.37973 185.034 8.27769 185.034 8.15297C185.034 8.02825 184.626 7.92621 184.127 7.92621C183.628 7.92621 183.22 8.02825 183.22 8.15297ZM33.1066 16.543V24.7063H33.7868H34.4671V16.543V8.37973H33.7868H33.1066V16.543ZM41.7234 9.06C41.7234 9.43415 41.8254 9.74027 41.9501 9.74027C42.0748 9.74027 42.1769 9.94435 42.1769 10.1938C42.1769 10.4432 42.2789 10.6473 42.4036 10.6473C42.5283 10.6473 42.6304 10.9534 42.6304 11.3276C42.6304 11.7017 42.7324 12.0078 42.8571 12.0078C42.9819 12.0078 43.0839 12.2119 43.0839 12.4614C43.0839 12.7108 43.1859 12.9149 43.3107 12.9149C43.4354 12.9149 43.5374 13.119 43.5374 13.3684C43.5374 13.6178 43.6395 13.8219 43.7642 13.8219C43.8889 13.8219 43.9909 14.128 43.9909 14.5022C43.9909 14.8763 44.093 15.1825 44.2177 15.1825C44.3424 15.1825 44.4444 15.3865 44.4444 15.636C44.4444 15.8854 44.5465 16.0895 44.6712 16.0895C44.7959 16.0895 44.898 16.2936 44.898 16.543C44.898 16.7924 45 16.9965 45.1247 16.9965C45.2494 16.9965 45.3515 17.3026 45.3515 17.6768C45.3515 18.0509 45.4535 18.3571 45.5782 18.3571C45.7029 18.3571 45.805 18.5611 45.805 18.8106C45.805 19.06 45.907 19.2641 46.0317 19.2641C46.1565 19.2641 46.2585 19.4682 46.2585 19.7176C46.2585 19.967 46.3605 20.1711 46.4853 20.1711C46.61 20.1711 46.712 20.4772 46.712 20.8514C46.712 21.2255 46.8141 21.5317 46.9388 21.5317C47.0635 21.5317 47.1655 21.7357 47.1655 21.9852C47.1655 22.2346 47.2676 22.4387 47.3923 22.4387C47.517 22.4387 47.619 22.6428 47.619 22.8922C47.619 23.1416 47.7211 23.3457 47.8458 23.3457C47.9705 23.3457 48.0726 23.8559 48.0726 24.4795C48.0726 25.1031 47.9705 25.6133 47.8458 25.6133C47.7211 25.6133 47.619 25.9194 47.619 26.2936C47.619 26.6677 47.517 26.9738 47.3923 26.9738C47.2676 26.9738 47.1655 27.1779 47.1655 27.4273C47.1655 27.6768 47.0635 27.8809 46.9388 27.8809C46.8141 27.8809 46.712 28.0849 46.712 28.3344C46.712 28.5838 46.61 28.7879 46.4853 28.7879C46.3605 28.7879 46.2585 28.992 46.2585 29.2414C46.2585 29.6194 46.4097 29.6949 47.1655 29.6949C47.9213 29.6949 48.0726 29.6194 48.0726 29.2414C48.0726 28.992 48.1746 28.7879 48.2993 28.7879C48.424 28.7879 48.5261 28.4818 48.5261 28.1076C48.5261 27.7335 48.6281 27.4273 48.7528 27.4273C48.8776 27.4273 48.9796 27.2233 48.9796 26.9738C48.9796 26.7244 49.0816 26.5203 49.2063 26.5203C49.3311 26.5203 49.4331 26.3162 49.4331 26.0668C49.4331 25.8174 49.5351 25.6133 49.6599 25.6133C49.7846 25.6133 49.8866 25.3072 49.8866 24.933C49.8866 24.5589 49.9887 24.2527 50.1134 24.2527C50.2381 24.2527 50.3401 24.0487 50.3401 23.7992C50.3401 23.5498 50.4422 23.3457 50.5669 23.3457C50.6916 23.3457 50.7936 23.1416 50.7936 22.8922C50.7936 22.6428 50.8957 22.4387 51.0204 22.4387C51.1451 22.4387 51.2472 22.2346 51.2472 21.9852C51.2472 21.7357 51.3492 21.5317 51.4739 21.5317C51.5986 21.5317 51.7007 21.2255 51.7007 20.8514C51.7007 20.4772 51.8027 20.1711 51.9274 20.1711C52.0522 20.1711 52.1542 19.967 52.1542 19.7176C52.1542 19.4682 52.2562 19.2641 52.381 19.2641C52.5057 19.2641 52.6077 19.06 52.6077 18.8106C52.6077 18.5611 52.7097 18.3571 52.8345 18.3571C52.9592 18.3571 53.0612 18.153 53.0612 17.9035C53.0612 17.6541 53.1633 17.45 53.288 17.45C53.4127 17.45 53.5147 17.1439 53.5147 16.7698C53.5147 16.3956 53.6168 16.0895 53.7415 16.0895C53.8662 16.0895 53.9683 15.8854 53.9683 15.636C53.9683 15.3865 54.0703 15.1825 54.195 15.1825C54.3197 15.1825 54.4218 14.9784 54.4218 14.7289C54.4218 14.4795 54.5238 14.2754 54.6485 14.2754C54.7732 14.2754 54.8753 13.9693 54.8753 13.5951C54.8753 13.221 54.9773 12.9149 55.102 12.9149C55.2268 12.9149 55.3288 12.7108 55.3288 12.4614C55.3288 12.2119 55.4308 12.0078 55.5556 12.0078C55.6803 12.0078 55.7823 11.8038 55.7823 11.5543C55.7823 11.3049 55.8844 11.1008 56.0091 11.1008C56.1338 11.1008 56.2358 10.8967 56.2358 10.6473C56.2358 10.3979 56.3379 10.1938 56.4626 10.1938C56.5873 10.1938 56.6893 9.88767 56.6893 9.51352C56.6893 9.13937 56.7914 8.83324 56.9161 8.83324C57.0408 8.83324 57.1429 8.7312 57.1429 8.60649C57.1429 8.48177 56.7347 8.37973 56.2358 8.37973C55.48 8.37973 55.3288 8.45524 55.3288 8.83324C55.3288 9.08268 55.2268 9.28676 55.102 9.28676C54.9773 9.28676 54.8753 9.49084 54.8753 9.74027C54.8753 9.98971 54.7732 10.1938 54.6485 10.1938C54.5238 10.1938 54.4218 10.4999 54.4218 10.8741C54.4218 11.2482 54.3197 11.5543 54.195 11.5543C54.0703 11.5543 53.9683 11.7584 53.9683 12.0078C53.9683 12.2573 53.8662 12.4614 53.7415 12.4614C53.6168 12.4614 53.5147 12.6654 53.5147 12.9149C53.5147 13.1643 53.4127 13.3684 53.288 13.3684C53.1633 13.3684 53.0612 13.6745 53.0612 14.0487C53.0612 14.4228 52.9592 14.7289 52.8345 14.7289C52.7097 14.7289 52.6077 14.933 52.6077 15.1825C52.6077 15.4319 52.5057 15.636 52.381 15.636C52.2562 15.636 52.1542 15.84 52.1542 16.0895C52.1542 16.3389 52.0522 16.543 51.9274 16.543C51.8027 16.543 51.7007 16.8491 51.7007 17.2233C51.7007 17.5974 51.5986 17.9035 51.4739 17.9035C51.3492 17.9035 51.2472 18.1076 51.2472 18.3571C51.2472 18.6065 51.1451 18.8106 51.0204 18.8106C50.8957 18.8106 50.7936 19.0146 50.7936 19.2641C50.7936 19.5135 50.6916 19.7176 50.5669 19.7176C50.4422 19.7176 50.3401 20.0237 50.3401 20.3979C50.3401 20.772 50.2381 21.0781 50.1134 21.0781C49.9887 21.0781 49.8866 21.2385 49.8866 21.4344C49.8866 21.7781 49.3753 22.4387 49.1091 22.4387C49.0379 22.4387 48.9796 22.2346 48.9796 21.9852C48.9796 21.7357 48.8776 21.5317 48.7528 21.5317C48.6281 21.5317 48.5261 21.3276 48.5261 21.0781C48.5261 20.8287 48.424 20.6246 48.2993 20.6246C48.1746 20.6246 48.0726 20.3185 48.0726 19.9444C48.0726 19.5702 47.9705 19.2641 47.8458 19.2641C47.7211 19.2641 47.619 19.06 47.619 18.8106C47.619 18.5611 47.517 18.3571 47.3923 18.3571C47.2676 18.3571 47.1655 18.153 47.1655 17.9035C47.1655 17.6541 47.0635 17.45 46.9388 17.45C46.8141 17.45 46.712 17.1439 46.712 16.7698C46.712 16.3956 46.61 16.0895 46.4853 16.0895C46.3605 16.0895 46.2585 15.8854 46.2585 15.636C46.2585 15.3865 46.1565 15.1825 46.0317 15.1825C45.907 15.1825 45.805 14.8763 45.805 14.5022C45.805 14.128 45.7029 13.8219 45.5782 13.8219C45.4535 13.8219 45.3515 13.6178 45.3515 13.3684C45.3515 13.119 45.2494 12.9149 45.1247 12.9149C45 12.9149 44.898 12.7108 44.898 12.4614C44.898 12.2119 44.7959 12.0078 44.6712 12.0078C44.5465 12.0078 44.4444 11.7017 44.4444 11.3276C44.4444 10.9534 44.3424 10.6473 44.2177 10.6473C44.093 10.6473 43.9909 10.4432 43.9909 10.1938C43.9909 9.94435 43.8889 9.74027 43.7642 9.74027C43.6395 9.74027 43.5374 9.57996 43.5374 9.38404C43.5374 8.84866 42.9626 8.37973 42.3063 8.37973C41.8097 8.37973 41.7234 8.48041 41.7234 9.06ZM167.8 9.51352C167.8 9.63823 168.186 9.74027 168.657 9.74027C169.254 9.74027 169.614 9.87791 169.841 10.1938C170.021 10.4432 170.299 10.6473 170.458 10.6473C170.618 10.6473 170.748 10.7448 170.748 10.8639C170.748 10.9829 171.003 11.3353 171.315 11.6471C171.627 11.9589 171.882 12.4738 171.882 12.7913C171.882 13.1088 171.984 13.3684 172.109 13.3684C172.25 13.3684 172.336 14.6534 172.336 16.7698C172.336 18.8861 172.25 20.1711 172.109 20.1711C171.984 20.1711 171.882 20.3752 171.882 20.6246C171.882 20.8741 171.78 21.0781 171.655 21.0781C171.531 21.0781 171.429 21.2357 171.429 21.4285C171.429 21.8822 170.419 22.8922 169.965 22.8922C169.772 22.8922 169.615 22.9942 169.615 23.119C169.615 23.2437 169.308 23.3457 168.934 23.3457C168.56 23.3457 168.254 23.4478 168.254 23.5725C168.254 23.702 167.574 23.7992 166.667 23.7992C165.76 23.7992 165.079 23.702 165.079 23.5725C165.079 23.4478 164.822 23.3457 164.507 23.3457C163.725 23.3457 161.905 21.5251 161.905 20.7439C161.905 20.4289 161.803 20.1711 161.678 20.1711C161.553 20.1711 161.451 19.7629 161.451 19.2641C161.451 18.7652 161.349 18.3571 161.224 18.3571C161.092 18.3571 160.998 17.6013 160.998 16.543C160.998 15.4847 161.092 14.7289 161.224 14.7289C161.349 14.7289 161.451 14.3208 161.451 13.8219C161.451 13.323 161.553 12.9149 161.678 12.9149C161.803 12.9149 161.905 12.7108 161.905 12.4614C161.905 12.2119 162.007 12.0078 162.132 12.0078C162.256 12.0078 162.358 11.8475 162.358 11.6516C162.358 11.2144 162.897 10.6473 163.312 10.6473C163.481 10.6473 163.766 10.4432 163.946 10.1938C164.173 9.87791 164.533 9.74027 165.129 9.74027C165.601 9.74027 165.986 9.63823 165.986 9.51352C165.986 9.3888 166.395 9.28676 166.893 9.28676C167.392 9.28676 167.8 9.3888 167.8 9.51352ZM103.175 11.1008C103.354 11.3502 103.661 11.5543 103.855 11.5543C104.049 11.5543 104.355 11.7584 104.535 12.0078C104.715 12.2573 105 12.4614 105.168 12.4614C106.022 12.4614 106.122 12.9854 106.122 17.45C106.122 22.1183 106.047 22.4387 104.941 22.4387C104.648 22.4387 104.261 22.2346 104.082 21.9852C103.902 21.7357 103.622 21.5317 103.46 21.5317C103.047 21.5317 100.68 19.1224 100.68 18.7022C100.68 18.5124 100.578 18.3571 100.454 18.3571C100.329 18.3571 100.227 18.153 100.227 17.9035C100.227 17.6541 100.125 17.45 100 17.45C99.8655 17.45 99.7732 16.6185 99.7732 15.4092C99.7732 14.1999 99.8655 13.3684 100 13.3684C100.125 13.3684 100.227 13.2128 100.227 13.023C100.227 12.5754 102.049 10.6852 102.501 10.6636C102.692 10.6548 102.995 10.8514 103.175 11.1008ZM24.4898 14.9557C24.4898 15.0804 24.7483 15.1825 25.0642 15.1825C25.7029 15.1825 27.2109 16.531 27.2109 17.1024C27.2109 17.2936 27.3129 17.45 27.4376 17.45C27.5698 17.45 27.6644 18.2058 27.6644 19.2641C27.6644 20.3224 27.5698 21.0781 27.4376 21.0781C27.3129 21.0781 27.2109 21.2357 27.2109 21.4285C27.2109 21.8822 26.2009 22.8922 25.7472 22.8922C25.5544 22.8922 25.3968 22.9942 25.3968 23.119C25.3968 23.2437 25.0907 23.3457 24.7166 23.3457C24.3424 23.3457 24.0363 23.4478 24.0363 23.5725C24.0363 23.6986 23.4315 23.7992 22.6757 23.7992C21.92 23.7992 21.3152 23.6986 21.3152 23.5725C21.3152 23.4478 21.0567 23.3457 20.7408 23.3457C20.102 23.3457 18.5941 21.9972 18.5941 21.4258C18.5941 21.2346 18.4921 21.0781 18.3673 21.0781C18.2351 21.0781 18.1406 20.3224 18.1406 19.2641C18.1406 18.2058 18.2351 17.45 18.3673 17.45C18.4921 17.45 18.5941 17.2936 18.5941 17.1024C18.5941 16.531 20.102 15.1825 20.7408 15.1825C21.0567 15.1825 21.3152 15.0804 21.3152 14.9557C21.3152 14.8262 21.9955 14.7289 22.9025 14.7289C23.8095 14.7289 24.4898 14.8262 24.4898 14.9557ZM81.6327 18.5838C81.6327 20.0956 81.5433 21.0781 81.4059 21.0781C81.2685 21.0781 81.1791 20.0956 81.1791 18.5838C81.1791 17.072 81.2685 16.0895 81.4059 16.0895C81.5433 16.0895 81.6327 17.072 81.6327 18.5838ZM141.95 23.5725V24.7063H143.311H144.671V23.5725V22.4387H143.311H141.95V23.5725Z" fill="#909090"/>
</svg>
