<svg width="200" height="26" viewBox="0 0 200 26" fill="none" xmlns="http://www.w3.org/2000/svg">
<path fill-rule="evenodd" clip-rule="evenodd" d="M55.2476 1.17547C52.8535 3.05141 55.3372 6.55763 58.065 5.15255C59.5751 4.37453 59.7934 2.3927 58.4892 1.29933C57.603 0.556373 56.1104 0.49945 55.2476 1.17547ZM96.1646 1.17729C93.2503 1.9125 91.2004 4.16665 91.2004 6.63641C91.2004 8.64579 92.0263 9.78675 95.1979 12.1602C96.7442 13.3173 98.2363 14.5929 98.5136 14.9945C99.4907 16.4103 99.0002 18.2024 97.4601 18.8434C95.6951 19.5779 93.6585 18.2446 92.1881 15.3918C91.7079 14.4597 91.2119 13.7308 91.0861 13.7725C90.7648 13.8784 90.9494 18.5401 91.2838 18.763C92.1472 19.3382 94.2318 19.7268 96.4576 19.7278C98.565 19.7284 99.0107 19.6567 100.115 19.1389C102.656 17.9465 103.805 16.3584 103.805 14.0355C103.805 12.0812 103.114 11.1242 100.049 8.83113C96.1188 5.8905 95.7979 5.47724 96.0795 3.72105C96.2699 2.53364 97.1733 1.8574 98.5712 1.85603C99.4905 1.85512 99.7911 1.97626 100.54 2.64999C101.026 3.08739 101.717 4.06077 102.075 4.81306C103.048 6.85409 103.345 6.64438 103.266 3.9706L103.2 1.76018L102.172 1.4537C100.849 1.0598 97.2816 0.895633 96.1646 1.17729ZM0 1.38153C0 1.49674 0.308344 1.6584 0.685489 1.74105C2.04572 2.03864 2.05715 2.11173 2.05715 10.5226C2.05715 18.949 2.10104 18.6865 0.628574 19.0524C-1.08823 19.4793 0.598174 19.6148 7.62998 19.6148H15.26L15.4195 17.3948C15.5073 16.1739 15.6334 14.9442 15.7 14.6625C15.9061 13.7898 15.34 14.0883 14.6801 15.1999C12.9726 18.0768 12.0305 18.7774 9.83685 18.8013C7.51112 18.8265 7.54289 18.8869 7.54289 14.4321V10.6711L8.82793 10.8032C10.2951 10.9541 10.9226 11.4138 11.5486 12.7966C11.7722 13.2907 12.0938 13.6948 12.2634 13.6948C12.5077 13.6948 12.5715 13.0109 12.5715 10.3933C12.5715 6.69083 12.3763 6.31127 11.4663 8.24368C10.8417 9.57044 10.0741 10.0518 8.5829 10.0518H7.54289V6.06718V2.08259H9.45239C11.6869 2.08259 11.9342 2.23765 13.3555 4.53163C13.8401 5.31353 14.3246 5.95334 14.4325 5.95334C14.5404 5.95334 14.6286 4.8775 14.6286 3.56258V1.17182H7.31432C3.01144 1.17182 0 1.25812 0 1.38153ZM147.201 1.38449C147.201 1.50129 147.483 1.62948 147.829 1.6691L148.458 1.74105L148.522 4.39548L148.586 7.0499L147.722 6.60067C146.433 5.93057 144.399 6.09838 142.939 6.99548C140.059 8.7651 139.049 13.8246 140.838 17.5237C142.027 19.9825 145.604 20.6394 147.672 18.7785L148.572 17.9679V18.7915V19.6148L151.601 19.6075L154.629 19.6005L154.001 19.1332L153.372 18.666V9.91904V1.17182H150.286C148.528 1.17182 147.201 1.26335 147.201 1.38449ZM186.058 1.37105C186.058 1.48057 186.367 1.63176 186.744 1.7069L187.429 1.84351V4.47289V7.10227L186.887 6.74821C186.589 6.55353 185.82 6.33222 185.178 6.2564C182.747 5.96973 180.67 7.17263 179.5 9.5454C178.914 10.7355 178.858 11.0661 178.86 13.3533C178.863 15.4736 178.943 16.0312 179.383 16.9879C180.026 18.3832 180.449 18.8593 181.535 19.4113C182.448 19.8758 184.282 19.9846 185.218 19.6301C185.526 19.5133 186.15 19.0927 186.604 18.6956L187.429 17.9738V18.7942V19.6148L190.458 19.6075L193.487 19.6005L192.858 19.1332L192.229 18.666V9.91904V1.17182H189.144C187.447 1.17182 186.058 1.26153 186.058 1.37105ZM108.468 4.50477C107.542 5.30465 104.644 6.8641 104.084 6.8641C103.912 6.8641 103.772 6.96657 103.772 7.0918C103.772 7.21703 104.029 7.31949 104.343 7.31949H104.915L104.918 12.4995C104.922 18.0526 104.983 18.4021 106.104 19.2312C107.566 20.3122 111.115 19.4413 112.006 17.7826C112.168 17.4809 112.033 17.4272 111.139 17.4383C109.567 17.4581 109.494 17.2093 109.49 11.8278L109.486 7.34226L110.801 7.27395C111.786 7.22272 112.115 7.12026 112.115 6.8641C112.115 6.61569 111.772 6.4916 110.858 6.40872L109.601 6.29488L109.486 5.00933L109.372 3.72401L108.468 4.50477ZM87.7718 6.3452C87.0255 6.57744 86.2415 6.6207 84.9147 6.5023C83.909 6.41282 82.2061 6.33381 81.1304 6.32698C79.3608 6.31605 79.0566 6.38094 77.9304 7.01119C77.2461 7.39417 76.4666 8.02761 76.1983 8.41878C75.0808 10.0484 75.3437 12.1106 76.8513 13.5407L77.7688 14.4112L77.2404 14.793C76.4653 15.3529 76.4644 15.3538 76.0442 15.9656C75.4918 16.7698 75.5448 18.2723 76.153 19.0424C76.9325 20.0297 77.9471 20.3109 81.4566 20.5126C83.2328 20.6148 84.874 20.7758 85.1037 20.8708C86.3103 21.3689 85.9005 23.1249 84.4104 23.8408C83.4578 24.2984 81.1478 24.5332 79.8975 24.2996C78.6842 24.073 77.7146 23.152 77.7146 22.2264C77.7146 21.8066 77.8175 21.3999 77.9432 21.3225C78.4561 21.0067 78.1135 20.7533 77.1741 20.7533C76.0964 20.7533 75.1069 21.3368 74.8575 22.1194C74.6342 22.8205 75.3549 24.0491 76.2344 24.4669C79.3403 25.9424 85.0395 25.1113 87.1172 22.8804C89.0404 20.8148 88.8923 17.8443 86.8105 16.7288C86.2084 16.4062 85.2932 16.3015 82.2395 16.2056C78.3199 16.0824 77.8207 15.9576 77.986 15.142C78.0475 14.8392 78.2317 14.7415 78.636 14.7976C78.9464 14.8404 80.1803 14.8916 81.378 14.9114C83.2946 14.9428 83.6888 14.8788 84.6678 14.377C87.3787 12.9872 88.1382 10.1228 86.3375 8.07998C85.6345 7.28215 85.6294 7.26188 86.1773 7.43629C87.5924 7.88644 88.8982 8.17082 89.0153 8.05425C89.2066 7.86367 89.1698 6.22201 88.9718 6.11637C88.8774 6.06627 88.3376 6.16919 87.7718 6.3452ZM30.6079 6.53486C26.3914 7.8286 24.6346 14.347 27.5789 17.7735C29.7185 20.2635 33.7572 20.5561 36.4495 18.416C37.1577 17.8532 38.5234 15.563 38.2898 15.3303C38.2315 15.2723 37.7775 15.5904 37.2811 16.0371C35.0918 18.0073 32.1215 17.1211 31.3382 14.2641C30.7798 12.2278 30.6006 12.3287 34.7725 12.3287H38.4591L38.3003 11.1333C38.0982 9.61165 37.4978 8.28535 36.6553 7.49914C35.3204 6.25366 32.8223 5.8552 30.6079 6.53486ZM46.6807 6.66283C46.1438 6.92786 45.3979 7.51462 45.0235 7.96681L44.3431 8.78946V7.59909V6.40872L41.3145 6.41601L38.2859 6.42307L38.9145 6.89029L39.543 7.35751V13.0118V18.666L38.9145 19.1332L38.2859 19.6005H41.9431H45.6002L44.9716 19.1332L44.3431 18.666V14.0254C44.3431 9.6704 44.3703 9.3703 44.7851 9.14899C45.48 8.77876 46.3586 8.87189 46.8574 9.36871C47.2825 9.79221 47.3145 10.1276 47.3145 14.1502C47.3145 18.1728 47.2825 18.5082 46.8574 18.9317C46.6059 19.1822 46.4002 19.4384 46.4002 19.501C46.4002 19.5636 47.9095 19.6148 49.7543 19.6148H53.1086L52.627 19.1025C52.1717 18.6182 52.1415 18.3101 52.0727 13.4672C52.0023 8.4814 51.9856 8.32361 51.4519 7.57837C50.4416 6.16737 48.4578 5.78667 46.6807 6.66283ZM68.9125 6.60567C68.4088 6.83382 67.6629 7.3985 67.2554 7.86094L66.5146 8.70157V7.55515V6.40872L63.486 6.41373L60.4574 6.41874L61.0289 6.85614L61.6003 7.29353V13.017C61.6003 18.2054 61.5628 18.768 61.2003 19.0322C60.9804 19.1924 60.8003 19.3889 60.8003 19.4691C60.8003 19.5492 62.369 19.6116 64.286 19.6075L67.7717 19.6005L67.1432 19.1332L66.5146 18.666V13.9139V9.16174L67.2947 9.01579C68.3461 8.81929 69.0111 9.06451 69.2705 9.74463C69.3891 10.055 69.486 12.1468 69.486 14.3927C69.486 18.1728 69.452 18.5103 69.0289 18.9317C68.7775 19.1822 68.5717 19.4384 68.5717 19.501C68.5717 19.5636 70.0888 19.6125 71.9432 19.6098C75.3137 19.6048 75.3144 19.6046 74.7432 19.1679L74.1718 18.7309L74.0575 13.4237C73.9578 8.79834 73.8902 8.03854 73.5297 7.50984C72.6547 6.22589 70.6287 5.82902 68.9125 6.60567ZM116.511 6.41441C114.257 6.98114 112.915 8.16855 112.915 9.5964C112.915 11.2813 114.373 12.224 115.958 11.5639C116.928 11.1606 117.258 10.611 117.258 9.40036C117.258 8.62757 117.13 8.38599 116.406 7.79149L115.553 7.0918H116.299C118.158 7.0918 119.315 8.22957 119.315 10.0579C119.315 11.3956 118.539 12.0668 116.052 12.8813C114.427 13.4134 113.891 13.7096 113.227 14.4421C112.446 15.3023 112.411 15.4103 112.504 16.6803C112.608 18.1127 113.106 18.8871 114.332 19.5226C115.587 20.1729 117.785 19.7831 118.712 18.7464L119.137 18.2703L119.906 19.0825C120.665 19.8842 120.695 19.8933 122.249 19.8058C123.486 19.7362 124.025 19.5841 124.769 19.0936C125.289 18.7505 125.715 18.3935 125.715 18.3001C125.715 18.2068 125.381 18.1314 124.972 18.1325L124.229 18.1348L124.115 13.4672C123.985 8.16172 123.879 7.78352 122.281 6.88847C121.519 6.462 120.902 6.33267 119.344 6.27325C118.26 6.23181 116.985 6.29533 116.511 6.41441ZM134.172 6.32584C133.382 6.63323 132.092 7.65123 131.652 8.31472L131.179 9.02717L131.247 7.77487L131.315 6.52257L128.354 6.45859L125.393 6.39438L125.897 6.92854C126.388 7.44927 126.401 7.60273 126.401 13.0814C126.401 18.4536 126.38 18.7127 125.943 18.9846C125.692 19.141 125.486 19.3468 125.486 19.442C125.486 19.5369 127.029 19.6148 128.915 19.6148C131.048 19.6148 132.343 19.5287 132.343 19.3871C132.343 19.2619 132.193 19.1594 132.009 19.1594C131.335 19.1594 131.201 18.2726 131.201 13.8317C131.201 9.66812 131.229 9.36962 131.643 9.14899C132.33 8.78263 133.377 8.87075 133.794 9.32977C134.118 9.68702 134.172 10.3719 134.172 14.1534C134.172 18.3652 134.15 18.5843 133.675 19.0879L133.178 19.6148H136.532C138.377 19.6148 139.886 19.5369 139.886 19.442C139.886 19.3468 139.681 19.141 139.429 18.9846C138.995 18.7143 138.972 18.4534 138.972 13.7499C138.971 8.3236 138.851 7.73388 137.553 6.78601C136.933 6.3329 134.874 6.05284 134.172 6.32584ZM158.615 6.47726C155.675 7.30833 154.344 9.25577 155.586 10.9125C156.263 11.8157 157.246 12.0275 158.325 11.5024C159.934 10.7196 160.044 8.83614 158.549 7.66216L157.829 7.0968L158.557 7.0943C159.565 7.09088 160.375 7.43493 161.038 8.14737C161.478 8.61983 161.601 8.99757 161.601 9.87487C161.601 11.4223 160.928 12.0457 158.367 12.8697C156.122 13.5922 155.07 14.4248 154.836 15.6637C154.513 17.383 155.149 18.7612 156.618 19.5226C157.873 20.1729 160.071 19.7831 160.998 18.7464L161.423 18.2703L162.192 19.0825C162.951 19.8842 162.981 19.8933 164.535 19.8058C165.772 19.7362 166.31 19.5841 167.055 19.0936C168.173 18.3566 168.259 18.062 167.318 18.1997C166.844 18.2689 166.593 18.1915 166.499 17.9477C166.425 17.7539 166.346 15.6166 166.325 13.1976C166.281 8.17788 166.172 7.78716 164.567 6.88847C163.384 6.22611 160.267 6.01072 158.615 6.47726ZM175.374 6.40371C174.745 6.66966 173.946 7.92628 173.945 8.65057C173.943 9.47185 174.64 10.46 175.509 10.8712C177.103 11.6244 178.972 10.4297 178.972 8.65854C178.972 6.95541 176.996 5.717 175.374 6.40371ZM13.9429 6.60112C13.9429 6.707 14.1514 6.98137 14.406 7.21088C14.7061 7.48138 15.555 9.73666 16.8197 13.6215L18.7704 19.6148H20.684H22.5976L24.3553 14.2071C26.2758 8.29924 26.5064 7.7439 27.37 6.94676L27.9526 6.40872H25.8239C23.6954 6.40872 23.5389 6.47521 24.5103 6.96634C24.9233 7.17513 25.0255 7.41261 25.0127 8.13462C24.9969 9.03355 23.1805 15.9233 22.8698 16.2625C22.7807 16.3597 22.1254 14.5325 21.4134 12.2021C20.0081 7.60296 19.9999 7.33474 21.2524 6.89985C21.6323 6.76802 21.943 6.60363 21.943 6.53441C21.943 6.46519 20.143 6.40872 17.9429 6.40872C15.7429 6.40872 13.9429 6.49524 13.9429 6.60112ZM53.9033 6.9356C54.3856 7.44722 54.4003 7.62641 54.4003 13.0644V18.666L53.7717 19.1332L53.1431 19.6005H56.8003C59.7212 19.6002 60.3845 19.5445 60.0947 19.3229C59.27 18.6922 59.2003 18.1394 59.2003 12.2299V6.40872H56.3033H53.4062L53.9033 6.9356ZM167.772 6.58154C167.772 6.67671 167.978 6.88255 168.229 7.03897C168.667 7.31106 168.686 7.56995 168.686 13.0118C168.686 18.4536 168.667 18.7125 168.229 18.9846C167.978 19.141 167.772 19.3468 167.772 19.442C167.772 19.5369 169.366 19.6148 171.315 19.6148C173.525 19.6148 174.858 19.5292 174.858 19.3871C174.858 19.2619 174.71 19.1594 174.528 19.1594C174.347 19.1594 174.038 18.9317 173.842 18.6533C173.543 18.227 173.487 17.2218 173.487 12.2779V6.40872H170.629C169.058 6.40872 167.772 6.48659 167.772 6.58154ZM33.7672 7.54718C33.9476 7.89782 34.0376 8.77193 34.0015 9.82409L33.943 11.5318H32.5716H31.2001L31.2159 10.5072C31.2246 9.94363 31.3076 9.09252 31.4001 8.61596C31.7213 6.96269 33.1375 6.32334 33.7672 7.54718ZM82.1588 7.37026C82.4331 7.7603 82.5147 8.5053 82.5147 10.621C82.5147 13.5682 82.263 14.3779 81.3471 14.3779C80.6095 14.3779 80.2289 13.0994 80.2289 10.621C80.2289 8.14259 80.6095 6.8641 81.3471 6.8641C81.5979 6.8641 81.9631 7.0918 82.1588 7.37026ZM148.115 7.54718C148.541 7.97205 148.572 8.30607 148.572 12.5211C148.572 16.7846 148.546 17.0635 148.104 17.4613C147.576 17.9374 146.234 17.9946 145.712 17.5633C145.12 17.0736 144.917 15.6972 144.916 12.1465C144.914 7.7159 145.138 7.15282 146.915 7.10978C147.372 7.09863 147.834 7.26689 148.115 7.54718ZM186.901 7.5868C187.418 8.0711 187.429 8.17811 187.429 12.4571C187.429 16.3923 187.386 16.885 187.002 17.3582C186.424 18.0692 185.101 18.0793 184.396 17.3778C183.911 16.8953 183.883 16.6653 183.816 12.5983C183.749 8.52671 183.768 8.29651 184.233 7.70861C184.86 6.91488 186.121 6.85727 186.901 7.5868ZM161.501 17.4955C161.313 17.9852 160.694 17.8354 159.983 17.1277C159.473 16.6191 159.317 16.2568 159.323 15.5908C159.332 14.6056 159.548 14.17 160.686 12.8367L161.486 11.8997L161.551 14.5487C161.587 16.0055 161.564 17.3315 161.501 17.4955ZM119.265 14.8902L119.201 17.6794L118.629 17.6216C117.339 17.4907 116.58 15.5259 117.323 14.2383C117.718 13.5534 118.939 12.137 119.15 12.1174C119.249 12.1083 119.3 13.3563 119.265 14.8902ZM195.961 14.2547C194.971 14.6839 194.439 15.571 194.439 16.7953C194.439 18.0825 195.051 18.9379 196.281 19.3712C197.086 19.6544 197.319 19.6535 198.085 19.363C199.127 18.9679 200.001 17.7944 200 16.7919C199.999 15.798 199.217 14.6366 198.289 14.2504C197.324 13.8488 196.896 13.8497 195.961 14.2547Z" fill="#909090"/>
</svg>
