<svg width="200" height="56" viewBox="0 0 200 56" fill="none" xmlns="http://www.w3.org/2000/svg">
<g clip-path="url(#clip0)">
<path fill-rule="evenodd" clip-rule="evenodd" d="M200 27.1211V22.8371H196.157V17.2892H188.976V22.8371H185.789V27.1211H188.977V35.8297C188.977 40.8169 192.349 41.2733 195.395 41.2733C196.918 41.2733 198.549 41.0626 200 41.0626V35.7967C199.459 35.8663 198.914 35.9011 198.368 35.9009C196.553 35.9009 196.156 35.1648 196.156 33.4786V27.1222H200V27.1211ZM181.574 30.002C179.18 29.2275 176.463 29.0871 175.264 28.5977C174.867 28.4222 174.433 28.1754 174.433 27.6488C174.433 26.4552 175.593 26.2445 176.606 26.2445C177.19 26.2445 177.766 26.4201 178.205 26.7701C178.67 27.086 179.002 27.5435 179.034 28.1403H185.562C185.381 23.4701 180.486 22.3797 176.426 22.3797C172.656 22.3797 167.543 23.5754 167.543 28.1754C167.543 31.3009 169.753 32.9871 175.229 33.8988C178.565 34.4605 179.18 34.7775 179.18 35.8297C179.18 36.885 177.695 37.235 176.751 37.235C175.884 37.235 175.194 37.0254 174.834 36.7084C174.287 36.2509 173.997 35.7254 173.958 35.0935H167.107C167.216 39.7988 172.075 41.5201 176.498 41.5201C181.066 41.5201 186.069 40.1499 186.069 35.0935C186.069 32.1084 183.965 30.7392 181.574 30.002V30.002ZM159.056 20.8701H166.235V15.9882H159.055V20.8711L159.056 20.8701ZM159.056 41.0616H166.235V22.8371H159.055V41.0616H159.056ZM146.361 36.4626C143.786 36.4626 143.203 34.1094 143.203 31.9328C143.203 29.7903 143.785 27.4371 146.361 27.4371C148.932 27.4371 149.514 29.7903 149.514 31.9328C149.514 34.1094 148.932 36.4626 146.361 36.4626ZM149.258 24.8382H149.186C148.101 23.2935 146.178 22.3807 144.036 22.3807C137.731 22.3807 136.026 27.5775 136.026 31.8626C136.026 36.4265 138.6 41.5201 143.931 41.5201C147.449 41.5201 148.533 40.219 149.441 39.0616H149.514V41.0626H156.437V15.9882H149.258V24.8382ZM128.375 25.7531H128.298V22.8371H121.411V41.0626H128.59V33.8637C128.59 29.9658 130.113 28.3509 132.942 28.3509C134.389 28.3509 135.042 28.5616 135.768 28.8062V22.6616C135.082 22.4791 134.376 22.3844 133.666 22.3797C131.055 22.3797 129.531 23.5754 128.374 25.752L128.375 25.7531ZM106.827 29.8956C107.157 27.9297 108.387 26.8403 110.529 26.8403C112.379 26.8403 113.68 28.2105 113.68 29.8956H106.827ZM109.875 22.3797C103.929 22.3797 99.9417 26.6967 99.9417 32.0031C99.9417 38.0775 104.473 41.5201 110.492 41.5201C114.768 41.5201 118.723 39.6935 120.173 35.7594H113.466C112.881 36.6392 111.614 37.0605 110.456 37.0605C108.208 37.0605 106.973 35.5839 106.794 33.5126H120.569C120.569 26.4201 117.344 22.3797 109.875 22.3797ZM91.3024 29.4041H91.23L83.6886 15.9882H75.5322V41.0626H83.0715V27.3669H83.1492L91.0854 41.0626H98.8428V15.9882H91.3013V29.4031L91.3024 29.4041ZM46.5269 35.4988H30.3673L33.6045 32.3148C33.6515 32.2694 33.689 32.215 33.7145 32.1549C33.7401 32.0948 33.7532 32.0301 33.7532 31.9648C33.7532 31.8994 33.7401 31.8347 33.7145 31.7746C33.689 31.7145 33.6515 31.6601 33.6045 31.6148L32.0939 30.1254C31.9985 30.0334 31.8711 29.9819 31.7386 29.9819C31.606 29.9819 31.4786 30.0334 31.3832 30.1254L28.0279 33.4265V28.5839C28.0276 28.5181 28.0144 28.4529 27.9888 28.3922C27.9633 28.3315 27.9261 28.2765 27.8792 28.2302C27.8324 28.184 27.7768 28.1474 27.7158 28.1227C27.6548 28.0979 27.5895 28.0855 27.5237 28.086H25.3854C25.2529 28.0858 25.1258 28.138 25.0319 28.2314C24.9379 28.3247 24.8849 28.4515 24.8843 28.5839V33.7009L21.2896 30.1573C21.1939 30.0643 21.0658 30.0119 20.9323 30.0113C20.7988 30.0107 20.6702 30.0619 20.5737 30.1541L19.0651 31.6414C19.0187 31.6872 18.9819 31.7418 18.9567 31.8019C18.9316 31.8621 18.9186 31.9267 18.9186 31.9919C18.9186 32.0571 18.9316 32.1217 18.9567 32.1819C18.9819 32.242 19.0187 32.2966 19.0651 32.3424L22.2705 35.4988H17.9045C17.771 35.4985 17.6427 35.5512 17.548 35.6454C17.4533 35.7395 17.3998 35.8674 17.3992 36.0009V38.1009C17.3992 38.3743 17.6279 38.5967 17.9045 38.5967H22.7683L19.08 42.2275C19.0326 42.2731 18.9949 42.3278 18.9691 42.3883C18.9433 42.4488 18.93 42.5139 18.93 42.5797C18.93 42.6454 18.9433 42.7105 18.9691 42.771C18.9949 42.8315 19.0326 42.8862 19.08 42.9318L20.5875 44.4211C20.78 44.6137 21.1056 44.6137 21.3003 44.4211L24.8843 40.8945V45.6924C24.8851 45.8247 24.9383 45.9512 25.0322 46.0443C25.1262 46.1374 25.2531 46.1895 25.3854 46.1892H27.5237C27.8003 46.1892 28.0279 45.9648 28.0279 45.6924V41.1754L31.3417 44.4467C31.4369 44.5395 31.5646 44.5915 31.6976 44.5915C31.8306 44.5915 31.9583 44.5395 32.0534 44.4467L33.5641 42.9626C33.6109 42.9169 33.6481 42.8623 33.6736 42.8021C33.699 42.7418 33.7121 42.677 33.7121 42.6116C33.7121 42.5461 33.699 42.4814 33.6736 42.4211C33.6481 42.3608 33.6109 42.3062 33.5641 42.2605L29.8534 38.5967H48.4237L46.5269 35.4988V35.4988ZM54.9386 49.3584H7.9843C7.04387 49.3584 6.66409 48.7094 7.13323 47.9041L18.8705 27.9041L30.6077 7.90519C31.0811 7.10306 31.8417 7.10306 32.3141 7.90519L44.0524 27.9052L55.7896 47.9052C56.2588 48.7094 55.879 49.3584 54.9386 49.3584V49.3584ZM61.3247 44.9637L49.3992 24.6509L37.479 4.33178C34.1151 -1.40226 28.6556 -1.40226 25.2886 4.33178L13.363 24.6509L1.44281 44.9637C-1.92528 50.7009 0.804512 55.3499 7.53855 55.3499H55.2322C61.9609 55.3499 64.6896 50.7009 61.3247 44.9637Z" fill="#909090"/>
</g>
<defs>
<clipPath id="clip0">
<rect y="0.03125" width="200" height="55.3191" fill="white"/>
</clipPath>
</defs>
</svg>
