<svg width="200" height="41" viewBox="0 0 200 41" fill="none" xmlns="http://www.w3.org/2000/svg">
<g clip-path="url(#clip0)">
<path d="M69.5 29.7422V34.3422H50.5V29.7422H57.3V11.3422H50.5V6.74219H69.5V11.3422H62.7V29.7422H69.5Z" fill="#909090"/>
<path d="M37.3992 6.74297H32.1992L28.3992 28.543L23.9992 8.34297C23.7992 6.94297 23.1992 6.74297 21.9992 6.74297H19.1992C17.9992 6.74297 17.3992 7.14297 17.1992 8.34297L12.7992 28.543L8.99922 6.74297H3.39922L8.79922 32.943C8.99922 34.143 9.39922 34.343 10.7992 34.343H14.5992C15.7992 34.343 16.1992 34.143 16.5992 32.943L20.7992 13.943L24.9992 32.943C25.1992 34.143 25.5992 34.343 26.9992 34.343H30.5992C31.7992 34.343 32.3992 34.143 32.5992 32.943L37.3992 6.74297V6.74297ZM40.1992 40.443H0.199219V0.542969H40.0992V40.443H40.1992Z" fill="#909090"/>
<path d="M105.9 27.143C105.9 30.143 106.1 32.343 106.5 34.143H111.9C111.7 32.743 111.5 30.143 111.5 26.743C111.3 22.743 110.1 22.143 107.3 21.543C110.5 20.943 111.9 19.543 111.9 14.543C111.9 10.543 111.3 8.94297 110.1 7.94297C109.3 7.14297 107.9 6.74297 105.7 6.74297H88.9004V34.343H94.5004V23.543H102.3C103.9 23.543 104.5 23.743 105.1 24.143C105.7 24.543 105.9 25.143 105.9 27.143V27.143ZM94.5004 19.143V11.543H103.5C104.7 11.543 105.1 11.743 105.3 11.943C105.7 12.343 106.1 12.943 106.1 15.343C106.1 17.743 105.7 18.543 105.3 18.943C105.1 19.143 104.7 19.343 103.5 19.343L94.5004 19.143ZM119.9 40.443H79.9004V0.542969H119.8V40.443H119.9Z" fill="#909090"/>
<path d="M168.6 6.74297V34.343H182.2C186 34.343 188.2 33.743 189.8 32.343C191.8 30.543 192.8 27.343 192.8 20.543C192.8 13.743 191.8 10.543 189.8 8.74297C188.2 7.34297 186 6.74297 182.2 6.74297H168.6V6.74297ZM187.2 20.543C187.2 26.543 186.8 27.943 185.6 28.743C184.8 29.343 183.8 29.543 181.8 29.543H174.2V11.343H181.8C183.8 11.343 184.8 11.343 185.6 12.143C186.8 13.143 187.2 14.543 187.2 20.543ZM199.8 40.443H159.9V0.542969H199.8V40.443Z" fill="#909090"/>
<path d="M127.301 11.3422V6.74219H150.901V15.5422H145.901V11.3422H136.301V17.9422H143.901V22.3422H136.301V29.7422H146.101V24.9422H151.101V34.3422H127.301V29.7422H131.101V11.3422H127.301V11.3422Z" fill="#909090"/>
</g>
<defs>
<clipPath id="clip0">
<rect y="0.542969" width="200" height="40.3" fill="white"/>
</clipPath>
</defs>
</svg>
