<svg width="200" height="74" viewBox="0 0 200 74" fill="none" xmlns="http://www.w3.org/2000/svg">
<path fill-rule="evenodd" clip-rule="evenodd" d="M71.8874 0.398823C71.8413 0.618061 71.8304 10.5146 71.863 22.391L71.9224 43.9845H77.1614H82.4007L82.4673 34.7461C82.5162 27.9976 82.6064 25.4634 82.8016 25.343C82.9486 25.2523 83.1395 24.8973 83.2258 24.5538C83.3121 24.2104 83.5258 23.9294 83.7005 23.9294C83.8753 23.9294 84.0183 23.8289 84.0183 23.7058C84.0183 23.583 84.2998 23.4118 84.6438 23.3254C84.9879 23.2393 85.4174 23.0212 85.5979 22.8409C85.9715 22.4681 87.7199 22.5937 87.8566 23.003C87.9011 23.1365 88.0831 23.2457 88.261 23.2457C88.439 23.2457 88.5845 23.3995 88.5845 23.5875C88.5845 23.7755 88.7386 23.9294 88.9269 23.9294C89.1153 23.9294 89.2694 24.0832 89.2694 24.2712C89.2694 24.4592 89.4235 24.6131 89.6119 24.6131C89.8655 24.6131 89.9543 24.879 89.9543 25.6386C89.9543 26.2027 90.0571 26.6641 90.1826 26.6641C90.3306 26.6641 90.411 29.5129 90.411 34.7546C90.411 39.9962 90.3306 42.845 90.1826 42.845C90.0571 42.845 89.9543 43.1013 89.9543 43.4147V43.9845H95.3196H100.685V32.3546C100.685 22.227 100.641 20.7076 100.342 20.5934C100.119 20.5077 100 20.1533 100 19.5749C100 18.9382 99.9032 18.6877 99.6575 18.6877C99.4292 18.6877 99.3151 18.4598 99.3151 18.004C99.3151 17.5482 99.2009 17.3203 98.9726 17.3203C98.7842 17.3203 98.6301 17.1665 98.6301 16.9785C98.6301 16.7904 98.476 16.6366 98.2877 16.6366C98.0993 16.6366 97.9452 16.5352 97.9452 16.4112C97.9452 16.0646 97.1945 15.2692 96.8671 15.2692C96.7066 15.2692 96.5753 15.1154 96.5753 14.9274C96.5753 14.7393 96.4212 14.5855 96.2329 14.5855C96.0445 14.5855 95.8904 14.485 95.8904 14.3619C95.8904 14.2391 95.6078 14.0693 95.2626 13.985C94.9173 13.9007 94.5616 13.7193 94.4721 13.5819C94.3696 13.4241 93.0148 13.3054 90.7941 13.2596C87.8386 13.1985 87.2215 13.2439 86.9203 13.5445C86.7235 13.7409 86.295 13.9018 85.968 13.9018C85.6411 13.9018 85.3146 14.0557 85.2425 14.2437C85.1701 14.4317 84.9678 14.5855 84.7929 14.5855C84.618 14.5855 84.4749 14.7282 84.4749 14.9028C84.4749 15.0771 84.218 15.2843 83.9041 15.3629C83.5902 15.4415 83.3333 15.6065 83.3333 15.7293C83.3333 15.8524 83.1279 15.9529 82.8767 15.9529C82.429 15.9529 82.4201 15.8009 82.4201 8.20435C82.4201 1.46858 82.3753 0.455797 82.0776 0.455797C81.8893 0.455797 81.7352 0.353243 81.7352 0.227899C81.7352 0.083183 79.9557 0 76.8532 0C72.3877 0 71.9639 0.0339569 71.8874 0.398823ZM187.308 0.569747C187.23 0.883108 187.022 1.13949 186.847 1.13949C186.647 1.13949 186.53 1.39109 186.53 1.82319C186.53 2.19922 186.438 2.50689 186.326 2.50689C186.214 2.50689 186.052 2.78789 185.966 3.13133C185.879 3.47477 185.706 3.8189 185.581 3.89616C185.456 3.97341 185.296 4.46157 185.227 4.98095C185.157 5.50034 185.019 5.92537 184.92 5.92537C184.821 5.92537 184.672 6.23303 184.589 6.60906C184.506 6.9851 184.357 7.29276 184.258 7.29276C184.158 7.29276 184.011 7.70298 183.931 8.20435C183.85 8.70573 183.695 9.11595 183.584 9.11595C183.474 9.11595 183.317 9.47489 183.234 9.91359C183.152 10.3523 182.986 10.7112 182.866 10.7112C182.747 10.7112 182.648 10.9708 182.648 11.2881C182.648 11.6055 182.506 11.9193 182.333 11.9859C182.159 12.0524 181.953 12.5107 181.874 13.0044C181.795 13.498 181.628 13.9018 181.504 13.9018C181.38 13.9018 181.279 14.2095 181.279 14.5855C181.279 15.0121 181.161 15.2692 180.966 15.2692C180.771 15.2692 180.605 15.6325 180.524 16.2328C180.453 16.7629 180.285 17.233 180.152 17.2775C180.018 17.3219 179.909 17.6574 179.909 18.0229C179.909 18.4618 179.792 18.6877 179.566 18.6877C179.338 18.6877 179.224 18.9156 179.224 19.3714C179.224 19.8272 179.11 20.0551 178.881 20.0551C178.634 20.0551 178.539 20.3083 178.539 20.9667C178.539 21.6251 178.444 21.8783 178.196 21.8783C177.966 21.8783 177.854 22.108 177.854 22.5782C177.854 22.9633 177.7 23.4321 177.511 23.6201C177.323 23.8081 177.169 24.2623 177.169 24.6292C177.169 25.0707 177.053 25.2968 176.826 25.2968C176.598 25.2968 176.484 25.5247 176.484 25.9805C176.484 26.4581 176.373 26.6641 176.115 26.6641C175.844 26.6641 175.782 26.8 175.884 27.1769C175.959 27.4591 176.023 27.7667 176.024 27.8606C176.026 27.9545 178.845 28.0315 182.288 28.0315H188.548L188.699 27.3478C188.781 26.9718 188.944 26.6641 189.059 26.6641C189.175 26.6641 189.269 26.3565 189.269 25.9805C189.269 25.5247 189.384 25.2968 189.612 25.2968C189.827 25.2968 189.954 25.0798 189.954 24.7108C189.954 24.3884 190.108 23.9708 190.297 23.7828C190.485 23.5948 190.639 23.1515 190.639 22.7981C190.639 22.4366 190.789 22.0975 190.982 22.0237C191.17 21.9517 191.324 21.6258 191.324 21.2994C191.324 20.9731 191.478 20.5524 191.667 20.3643C191.855 20.1763 192.009 19.7221 192.009 19.3552C192.009 18.9138 192.125 18.6877 192.352 18.6877C192.58 18.6877 192.694 18.4598 192.694 18.004C192.694 17.628 192.786 17.3203 192.898 17.3203C193.01 17.3203 193.172 17.0393 193.258 16.6959C193.345 16.3524 193.518 16.0083 193.643 15.931C193.768 15.8538 193.927 15.3656 193.997 14.8462C194.067 14.3269 194.205 13.9018 194.304 13.9018C194.403 13.9018 194.552 13.5942 194.635 13.2181C194.717 12.8421 194.867 12.5344 194.966 12.5344C195.066 12.5344 195.213 12.1242 195.293 11.6228C195.374 11.1215 195.541 10.7112 195.665 10.7112C195.789 10.7112 195.89 10.4004 195.89 10.0205C195.89 9.64034 196.032 9.27525 196.206 9.2087C196.379 9.14216 196.586 8.68385 196.665 8.19022C196.744 7.6966 196.911 7.29276 197.035 7.29276C197.159 7.29276 197.26 6.9851 197.26 6.60906C197.26 6.15327 197.374 5.92537 197.603 5.92537C197.831 5.92537 197.945 5.69747 197.945 5.24167C197.945 4.78587 198.059 4.55797 198.288 4.55797C198.535 4.55797 198.63 4.30387 198.63 3.63932C198.63 3.03288 198.747 2.67599 198.973 2.58939C199.168 2.51463 199.315 2.17461 199.315 1.7988C199.315 1.36466 199.432 1.13949 199.658 1.13949C199.871 1.13949 200 0.924357 200 0.569747V0H193.726H187.452L187.308 0.569747ZM45.3767 13.3679C45.1568 13.4292 44.9772 13.5746 44.9772 13.6906C44.9772 13.8068 44.6689 13.9018 44.2922 13.9018C43.8356 13.9018 43.6073 14.0158 43.6073 14.2437C43.6073 14.4716 43.379 14.5855 42.9224 14.5855C42.4658 14.5855 42.2374 14.6995 42.2374 14.9274C42.2374 15.1154 42.0833 15.2692 41.895 15.2692C41.7066 15.2692 41.5525 15.423 41.5525 15.6111C41.5525 15.8237 41.337 15.9529 40.9817 15.9529C40.6265 15.9529 40.411 16.0821 40.411 16.2948C40.411 16.4828 40.3082 16.6366 40.1826 16.6366C39.8865 16.6366 39.0411 17.4805 39.0411 17.7761C39.0411 17.9014 38.8982 18.004 38.7233 18.004C38.5486 18.004 38.3411 18.2604 38.2623 18.5737C38.1836 18.8871 38.0183 19.1435 37.8952 19.1435C37.7719 19.1435 37.6712 19.3005 37.6712 19.4924C37.6712 19.6845 37.5171 19.9006 37.3288 19.9726C37.1404 20.0448 36.9863 20.3525 36.9863 20.6563C36.9863 20.9603 36.8322 21.268 36.6438 21.34C36.4486 21.4147 36.3014 21.7548 36.3014 22.1306C36.3014 22.5647 36.1845 22.7899 35.9589 22.7899C35.7059 22.7899 35.6164 23.054 35.6164 23.7992C35.6164 24.3925 35.4753 24.9492 35.274 25.1502C34.9991 25.4246 34.9315 26.1881 34.9315 29.0218C34.9315 31.4815 35.0112 32.5781 35.1943 32.639C35.3388 32.6871 35.5057 33.311 35.5651 34.0253C35.6397 34.9239 35.7699 35.3243 35.9872 35.3243C36.184 35.3243 36.3014 35.5795 36.3014 36.008C36.3014 36.4638 36.4155 36.6917 36.6438 36.6917C36.8721 36.6917 36.9863 36.9196 36.9863 37.3754C36.9863 37.8312 37.1005 38.0591 37.3288 38.0591C37.5171 38.0591 37.6712 38.2129 37.6712 38.4009C37.6712 38.589 37.7658 38.7428 37.8815 38.7428C37.997 38.7428 38.1594 39.0504 38.242 39.4265C38.3247 39.8025 38.5384 40.1102 38.7167 40.1102C38.8952 40.1102 39.0411 40.264 39.0411 40.452C39.0411 40.64 39.1952 40.7939 39.3836 40.7939C39.5719 40.7939 39.726 40.9477 39.726 41.1357C39.726 41.3237 39.8801 41.4776 40.0685 41.4776C40.2568 41.4776 40.411 41.5781 40.411 41.7011C40.411 41.824 40.6678 41.989 40.9817 42.0676C41.2957 42.1462 41.5525 42.3534 41.5525 42.5277C41.5525 42.7023 41.7066 42.845 41.895 42.845C42.0833 42.845 42.2374 42.9393 42.2374 43.0549C42.2374 43.1702 42.5457 43.3322 42.9224 43.4147C43.2991 43.4972 43.6073 43.6462 43.6073 43.7456C43.6073 43.845 44.0409 43.9954 44.5708 44.0799C45.1007 44.1645 45.6034 44.3454 45.6879 44.482C45.9142 44.8473 52.7322 44.8211 52.9596 44.4542C53.0537 44.3021 53.5564 44.1207 54.0767 44.0512C54.6632 43.9726 55.0228 43.806 55.0228 43.6125C55.0228 43.4411 55.1769 43.3008 55.3653 43.3008C55.5537 43.3008 55.7078 43.1982 55.7078 43.0729C55.7078 42.9475 55.8619 42.845 56.0502 42.845C56.2386 42.845 56.3927 42.703 56.3927 42.5298C56.3927 42.2597 57.0249 41.9468 57.5913 41.9366C57.6854 41.9347 57.7626 42.4482 57.7626 43.0774V44.2212L62.7283 44.1599L67.6941 44.0984L67.7527 29.4112C67.7984 18.0113 67.8751 14.6833 68.0952 14.5408C68.8196 14.073 67.4326 13.9087 62.7283 13.9052L57.7626 13.9018V14.9274C57.7626 15.8009 57.695 15.9529 57.3059 15.9529C57.0548 15.9529 56.8493 15.8524 56.8493 15.7293C56.8493 15.6065 56.5925 15.4415 56.2785 15.3629C55.9646 15.2843 55.7078 15.0771 55.7078 14.9028C55.7078 14.7282 55.5537 14.5855 55.3653 14.5855C55.1769 14.5855 55.0228 14.485 55.0228 14.3619C55.0228 14.2391 54.7402 14.0693 54.395 13.985C54.0498 13.9007 53.6941 13.7193 53.6046 13.5819C53.44 13.3287 46.1927 13.1402 45.3767 13.3679ZM115.24 13.3751C115.02 13.4326 114.84 13.5746 114.84 13.6906C114.84 13.8068 114.488 13.9018 114.057 13.9018C113.627 13.9018 113.121 14.0557 112.932 14.2437C112.744 14.4317 112.326 14.5855 112.003 14.5855C111.653 14.5855 111.416 14.7141 111.416 14.9028C111.416 15.0771 111.159 15.2843 110.845 15.3629C110.531 15.4415 110.274 15.6065 110.274 15.7293C110.274 15.8524 110.068 15.9529 109.817 15.9529C109.564 15.9529 109.361 16.1049 109.361 16.2948C109.361 16.4828 109.207 16.6366 109.018 16.6366C108.83 16.6366 108.676 16.7904 108.676 16.9785C108.676 17.1665 108.522 17.3203 108.333 17.3203C108.145 17.3203 107.991 17.4741 107.991 17.6622C107.991 17.8502 107.837 18.004 107.648 18.004C107.46 18.004 107.306 18.1578 107.306 18.3458C107.306 18.5339 107.152 18.6877 106.963 18.6877C106.775 18.6877 106.621 18.8042 106.621 18.9464C106.621 19.0888 106.364 19.4427 106.05 19.7333C105.736 20.0236 105.479 20.4744 105.479 20.7351C105.479 20.9956 105.325 21.268 105.137 21.34C104.949 21.4122 104.795 21.7115 104.795 22.0052C104.795 22.299 104.655 22.6212 104.484 22.7215C104.314 22.8218 104.118 23.4132 104.05 24.0358C103.982 24.6584 103.813 25.2054 103.675 25.2514C103.334 25.3649 103.326 32.5189 103.668 32.6324C103.801 32.6768 103.972 33.1709 104.047 33.7304C104.123 34.2899 104.321 34.8847 104.489 35.0522C104.657 35.2197 104.795 35.6573 104.795 36.0242C104.795 36.4656 104.91 36.6917 105.137 36.6917C105.325 36.6917 105.479 36.8455 105.479 37.0335C105.479 37.2216 105.574 37.3754 105.69 37.3754C105.805 37.3754 105.968 37.6831 106.05 38.0591C106.133 38.4351 106.295 38.7428 106.411 38.7428C106.526 38.7428 106.621 38.8966 106.621 39.0846C106.621 39.2726 106.775 39.4265 106.963 39.4265C107.152 39.4265 107.306 39.5803 107.306 39.7683C107.306 39.9563 107.46 40.1102 107.648 40.1102C107.837 40.1102 107.991 40.264 107.991 40.452C107.991 40.64 108.145 40.7939 108.333 40.7939C108.522 40.7939 108.676 40.9477 108.676 41.1357C108.676 41.3237 108.83 41.4776 109.018 41.4776C109.207 41.4776 109.361 41.5719 109.361 41.6875C109.361 41.8028 109.669 41.9648 110.046 42.0473C110.422 42.1298 110.731 42.3431 110.731 42.5211C110.731 42.6993 110.885 42.845 111.073 42.845C111.261 42.845 111.416 42.9343 111.416 43.0437C111.416 43.1531 111.826 43.308 112.329 43.3883C112.831 43.4685 113.242 43.6264 113.242 43.7392C113.242 43.852 113.679 44.0173 114.212 44.1064C114.746 44.1953 115.248 44.371 115.328 44.4965C115.54 44.8306 124.042 44.8033 124.153 44.4683C124.201 44.3272 124.642 44.1474 125.133 44.069C125.625 43.9904 126.027 43.8413 126.027 43.7379C126.027 43.6342 126.387 43.4819 126.826 43.3997C127.266 43.3174 127.626 43.1699 127.626 43.0722C127.626 42.9744 127.882 42.8299 128.196 42.7513C128.51 42.6727 128.767 42.5077 128.767 42.3848C128.767 42.2618 128.924 42.1613 129.117 42.1613C129.309 42.1613 129.524 42.0113 129.595 41.8281C129.665 41.6448 129.924 41.4313 130.169 41.3534C130.756 41.1674 132.114 39.8034 132.302 39.21C132.384 38.9529 132.547 38.7428 132.664 38.7428C132.781 38.7428 132.877 38.589 132.877 38.4009C132.877 38.2129 133.031 38.0591 133.219 38.0591C133.428 38.0591 133.562 37.8465 133.562 37.5137C133.562 37.2138 133.716 36.9093 133.904 36.8371C134.092 36.7651 134.247 36.4574 134.247 36.1534C134.247 35.8496 134.401 35.5419 134.589 35.4697C134.777 35.3977 134.932 35.0718 134.932 34.7454C134.932 34.4191 135.086 33.9984 135.274 33.8104C135.517 33.5679 135.616 32.9765 135.616 31.7757C135.616 30.7989 135.713 30.0826 135.845 30.0826C135.97 30.0826 136.073 29.6211 136.073 29.0571C136.073 28.493 135.97 28.0315 135.845 28.0315C135.71 28.0315 135.616 27.2316 135.616 26.0873C135.616 24.5693 135.541 24.1142 135.274 24.0119C135.082 23.938 134.932 23.5989 134.932 23.2375C134.932 22.884 134.777 22.4407 134.589 22.2527C134.401 22.0647 134.247 21.6472 134.247 21.3247C134.247 20.9557 134.12 20.7388 133.904 20.7388C133.714 20.7388 133.562 20.5362 133.562 20.283C133.562 20.0298 133.409 19.8272 133.219 19.8272C133.006 19.8272 132.877 19.6121 132.877 19.2574C132.877 18.9028 132.747 18.6877 132.534 18.6877C132.346 18.6877 132.192 18.5339 132.192 18.3458C132.192 18.1578 132.038 18.004 131.849 18.004C131.661 18.004 131.507 17.8502 131.507 17.6622C131.507 17.4741 131.353 17.3203 131.164 17.3203C130.976 17.3203 130.822 17.1665 130.822 16.9785C130.822 16.7904 130.668 16.6366 130.479 16.6366C130.291 16.6366 130.137 16.4828 130.137 16.2948C130.137 16.0669 129.909 15.9529 129.452 15.9529C128.995 15.9529 128.767 15.839 128.767 15.6111C128.767 15.3984 128.552 15.2692 128.196 15.2692C127.841 15.2692 127.626 15.14 127.626 14.9274C127.626 14.7022 127.4 14.5855 126.965 14.5855C126.589 14.5855 126.248 14.4385 126.173 14.2437C126.087 14.0201 125.732 13.9018 125.146 13.9018C124.56 13.9018 124.204 13.7835 124.118 13.56C124.008 13.2719 123.329 13.2222 119.813 13.2446C117.518 13.2591 115.459 13.3179 115.24 13.3751ZM149.631 13.5468C149.539 13.7847 149.199 13.9018 148.599 13.9018C148.013 13.9018 147.657 14.0201 147.571 14.2437C147.499 14.4317 147.191 14.5855 146.886 14.5855C146.582 14.5855 146.274 14.7393 146.201 14.9274C146.129 15.1154 145.824 15.2692 145.524 15.2692C145.19 15.2692 144.977 15.4025 144.977 15.6111C144.977 15.8237 144.762 15.9529 144.406 15.9529C144.051 15.9529 143.836 16.0821 143.836 16.2948C143.836 16.4846 143.633 16.6366 143.379 16.6366C143.125 16.6366 142.922 16.7886 142.922 16.9785C142.922 17.1665 142.768 17.3203 142.58 17.3203C142.392 17.3203 142.237 17.4741 142.237 17.6622C142.237 17.8502 142.083 18.004 141.895 18.004C141.707 18.004 141.553 18.1578 141.553 18.3458C141.553 18.5339 141.45 18.6877 141.324 18.6877C141.199 18.6877 141.096 18.8424 141.096 19.0318C141.096 19.221 140.89 19.5514 140.639 19.7661C140.388 19.9808 140.183 20.2873 140.183 20.4475C140.183 20.6077 140.088 20.7388 139.972 20.7388C139.857 20.7388 139.695 21.0464 139.612 21.4225C139.529 21.7985 139.38 22.1062 139.28 22.1062C139.181 22.1062 139.034 22.5164 138.953 23.0178C138.873 23.5191 138.718 23.9294 138.61 23.9294C138.502 23.9294 138.364 24.5139 138.305 25.2284C138.245 25.9426 138.079 26.5666 137.934 26.6147C137.599 26.7261 137.569 30.6945 137.903 30.8055C138.03 30.8479 138.199 31.5742 138.278 32.4197C138.358 33.2652 138.504 33.9569 138.603 33.9569C138.703 33.9569 138.853 34.4116 138.937 34.9672C139.02 35.5228 139.232 36.0324 139.407 36.0994C139.583 36.1666 139.726 36.4811 139.726 36.7986C139.726 37.1158 139.829 37.3754 139.954 37.3754C140.08 37.3754 140.183 37.5292 140.183 37.7172C140.183 37.9053 140.337 38.0591 140.525 38.0591C140.713 38.0591 140.868 38.2138 140.868 38.4032C140.868 38.5924 141.073 38.9228 141.324 39.1375C141.575 39.3522 141.781 39.6587 141.781 39.8189C141.781 39.9791 141.892 40.1102 142.027 40.1102C142.162 40.1102 142.581 40.4178 142.958 40.7939C143.334 41.1699 143.789 41.4776 143.967 41.4776C144.146 41.4776 144.292 41.6314 144.292 41.8194C144.292 42.0074 144.446 42.1613 144.635 42.1613C144.823 42.1613 144.977 42.2556 144.977 42.3712C144.977 42.4865 145.285 42.6485 145.662 42.731C146.039 42.8135 146.347 42.9673 146.347 43.0729C146.347 43.1784 146.655 43.3322 147.032 43.4147C147.409 43.4972 147.717 43.6462 147.717 43.7456C147.717 43.845 148.15 43.9954 148.68 44.0799C149.21 44.1645 149.712 44.3434 149.795 44.4772C149.993 44.7969 158.215 44.8133 158.418 44.4945C158.497 44.3701 158.998 44.1953 159.532 44.1064C160.066 44.0173 160.502 43.8591 160.502 43.7547C160.502 43.6504 160.812 43.497 161.189 43.4143C162.097 43.2153 163.242 42.6364 163.242 42.3769C163.242 42.2631 163.499 42.1057 163.813 42.027C164.127 41.9484 164.384 41.7925 164.384 41.6809C164.384 41.569 164.538 41.4776 164.726 41.4776C164.914 41.4776 165.068 41.3237 165.068 41.1357C165.068 40.9477 165.223 40.7939 165.411 40.7939C165.599 40.7939 165.753 40.64 165.753 40.452C165.753 40.264 165.908 40.1102 166.096 40.1102C166.284 40.1102 166.438 39.9563 166.438 39.7683C166.438 39.5803 166.592 39.4265 166.781 39.4265C166.969 39.4265 167.123 39.2726 167.123 39.0846C167.123 38.8966 167.277 38.7428 167.466 38.7428C167.694 38.7428 167.808 38.5149 167.808 38.0591C167.808 37.6033 167.922 37.3754 168.151 37.3754C168.36 37.3754 168.493 37.1628 168.493 36.83C168.493 36.5301 168.647 36.2256 168.836 36.1534C169.024 36.0814 169.178 35.7737 169.178 35.4697C169.178 35.1659 169.332 34.8582 169.521 34.786C169.754 34.6967 169.863 34.332 169.863 33.6413C169.863 33.0328 169.977 32.5895 170.148 32.5325C170.36 32.4619 170.434 31.5359 170.434 28.9429C170.434 26.3501 170.36 25.4242 170.148 25.3537C169.984 25.299 169.863 24.8763 169.863 24.359C169.863 23.7694 169.745 23.4141 169.521 23.3282C169.328 23.2543 169.178 22.9152 169.178 22.5538C169.178 22.2003 169.024 21.757 168.836 21.569C168.647 21.381 168.493 21.066 168.493 20.8689C168.493 20.672 168.339 20.5109 168.151 20.5109C167.938 20.5109 167.808 20.2957 167.808 19.9411C167.808 19.5865 167.679 19.3714 167.466 19.3714C167.277 19.3714 167.123 19.2176 167.123 19.0295C167.123 18.8415 166.969 18.6877 166.781 18.6877C166.592 18.6877 166.438 18.5339 166.438 18.3458C166.438 18.1578 166.284 18.004 166.096 18.004C165.908 18.004 165.753 17.8502 165.753 17.6622C165.753 17.4741 165.599 17.3203 165.411 17.3203C165.223 17.3203 165.068 17.1665 165.068 16.9785C165.068 16.7904 164.914 16.6366 164.726 16.6366C164.538 16.6366 164.384 16.4828 164.384 16.2948C164.384 16.1067 164.274 15.9529 164.139 15.9529C164.004 15.9529 163.74 15.7991 163.552 15.6111C163.363 15.423 163.011 15.2692 162.769 15.2692C162.527 15.2692 162.329 15.1154 162.329 14.9274C162.329 14.7122 162.111 14.5855 161.742 14.5855C161.419 14.5855 161 14.4317 160.812 14.2437C160.624 14.0557 160.177 13.9018 159.82 13.9018C159.463 13.9018 159.128 13.7737 159.076 13.6169C159.005 13.4048 157.805 13.3141 154.374 13.2619C150.371 13.2008 149.75 13.238 149.631 13.5468ZM0 14.2437C0 14.4317 0.15411 14.5855 0.342466 14.5855C0.570776 14.5855 0.684931 14.8134 0.684931 15.2692C0.684931 15.725 0.799087 15.9529 1.0274 15.9529C1.28105 15.9529 1.36986 16.2189 1.36986 16.9785C1.36986 17.738 1.45868 18.004 1.71233 18.004C1.94064 18.004 2.05479 18.2319 2.05479 18.6877C2.05479 19.1435 2.16895 19.3714 2.39726 19.3714C2.61279 19.3714 2.73973 19.5884 2.73973 19.9573C2.73973 20.2798 2.89384 20.6973 3.08219 20.8853C3.27055 21.0733 3.42466 21.5166 3.42466 21.8701C3.42466 22.2315 3.57466 22.5706 3.76712 22.6445C3.95548 22.7165 4.10959 23.0351 4.10959 23.3526C4.10959 23.6698 4.20776 23.9294 4.32763 23.9294C4.44749 23.9294 4.61301 24.2883 4.69543 24.727C4.77785 25.1657 4.93539 25.5247 5.04543 25.5247C5.15571 25.5247 5.31142 25.9349 5.39178 26.4363C5.47215 26.9376 5.61918 27.3478 5.71872 27.3478C5.81826 27.3478 5.96758 27.6555 6.05023 28.0315C6.13288 28.4076 6.28219 28.7152 6.38173 28.7152C6.48128 28.7152 6.62831 29.1255 6.70868 29.6268C6.78904 30.1282 6.94475 30.5384 7.05502 30.5384C7.16507 30.5384 7.3226 30.8974 7.40502 31.3361C7.48744 31.7748 7.65297 32.1337 7.77283 32.1337C7.89269 32.1337 7.99087 32.3933 7.99087 32.7105C7.99087 33.028 8.14498 33.3466 8.33333 33.4186C8.5258 33.4925 8.6758 33.8316 8.6758 34.193C8.6758 34.5465 8.82991 34.9897 9.01826 35.1778C9.20662 35.3658 9.36073 35.7833 9.36073 36.1058C9.36073 36.4747 9.48767 36.6917 9.7032 36.6917C9.93151 36.6917 10.0457 36.9196 10.0457 37.3754C10.0457 37.8312 10.1598 38.0591 10.3881 38.0591C10.6418 38.0591 10.7306 38.325 10.7306 39.0846C10.7306 39.8442 10.8194 40.1102 11.0731 40.1102C11.3014 40.1102 11.4155 40.3381 11.4155 40.7939C11.4155 41.2497 11.5297 41.4776 11.758 41.4776C11.9735 41.4776 12.1005 41.6945 12.1005 42.0635C12.1005 42.386 12.2546 42.8035 12.4429 42.9915C12.9005 43.4482 12.9005 45.4323 12.4429 45.889C12.2546 46.077 12.1005 46.4945 12.1005 46.817C12.1005 47.186 11.9735 47.4029 11.758 47.4029C11.5297 47.4029 11.4155 47.6308 11.4155 48.0866C11.4155 48.5424 11.3014 48.7703 11.0731 48.7703C10.8194 48.7703 10.7306 49.0363 10.7306 49.7959C10.7306 50.5555 10.6418 50.8214 10.3881 50.8214C10.1598 50.8214 10.0457 51.0493 10.0457 51.5051C10.0457 51.9609 9.93151 52.1888 9.7032 52.1888C9.48767 52.1888 9.36073 52.4058 9.36073 52.7747C9.36073 53.0972 9.20662 53.5147 9.01826 53.7027C8.82991 53.8908 8.6758 54.345 8.6758 54.7119V55.3794H14.3836H20.0913V54.6957C20.0913 54.2399 20.2055 54.012 20.4338 54.012C20.681 54.012 20.7763 53.7588 20.7763 53.1004C20.7763 52.442 20.8715 52.1888 21.1187 52.1888C21.347 52.1888 21.4612 51.9609 21.4612 51.5051C21.4612 51.0493 21.5753 50.8214 21.8037 50.8214C22.0573 50.8214 22.1461 50.5555 22.1461 49.7959C22.1461 49.0363 22.2349 48.7703 22.4886 48.7703C22.7169 48.7703 22.831 48.5424 22.831 48.0866C22.831 47.6308 22.9452 47.4029 23.1735 47.4029C23.4018 47.4029 23.516 47.175 23.516 46.7192C23.516 46.3432 23.6176 46.0355 23.7416 46.0355C23.8658 46.0355 24.032 45.6317 24.111 45.1381C24.19 44.6444 24.3968 44.1861 24.5703 44.1196C24.7438 44.0531 24.8858 43.688 24.8858 43.3078C24.8858 42.9279 24.9874 42.6171 25.1114 42.6171C25.2356 42.6171 25.4027 42.2068 25.4831 41.7055C25.5635 41.2041 25.7105 40.7939 25.81 40.7939C25.9096 40.7939 26.0589 40.4862 26.1416 40.1102C26.2242 39.7341 26.3865 39.4265 26.5021 39.4265C26.6178 39.4265 26.7123 39.1261 26.7123 38.759C26.7123 38.392 26.8539 37.9504 27.0269 37.7776C27.2 37.6049 27.4137 37.1361 27.5018 36.7357C27.5897 36.3355 27.7564 36.008 27.8719 36.008C27.9877 36.008 28.0822 35.7484 28.0822 35.4312C28.0822 35.1137 28.2363 34.7951 28.4247 34.7231C28.6171 34.6493 28.7671 34.3102 28.7671 33.9487C28.7671 33.5952 28.9212 33.152 29.1096 32.964C29.2979 32.7759 29.4521 32.3552 29.4521 32.0289C29.4521 31.7025 29.5941 31.3814 29.7676 31.3149C29.9411 31.2483 30.1479 30.79 30.2269 30.2964C30.3059 29.8028 30.4721 29.3989 30.5963 29.3989C30.7203 29.3989 30.8219 29.0913 30.8219 28.7152C30.8219 28.2594 30.9361 28.0315 31.1644 28.0315C31.3927 28.0315 31.5068 27.8036 31.5068 27.3478C31.5068 26.892 31.621 26.6641 31.8493 26.6641C32.103 26.6641 32.1918 26.3982 32.1918 25.6386C32.1918 24.879 32.2806 24.6131 32.5342 24.6131C32.7626 24.6131 32.8767 24.3852 32.8767 23.9294C32.8767 23.4736 32.9909 23.2457 33.2192 23.2457C33.4664 23.2457 33.5616 22.9925 33.5616 22.3341C33.5616 21.6757 33.6568 21.4225 33.9041 21.4225C34.1297 21.4225 34.2466 21.1973 34.2466 20.7632C34.2466 20.3874 34.3938 20.0473 34.589 19.9726C34.7774 19.9006 34.9315 19.5747 34.9315 19.2483C34.9315 18.922 35.0856 18.5013 35.274 18.3133C35.4623 18.1252 35.6164 17.671 35.6164 17.3041C35.6164 16.8627 35.7324 16.6366 35.9589 16.6366C36.1849 16.6366 36.3014 16.4108 36.3014 15.9718C36.3014 15.6063 36.3966 15.2731 36.5128 15.2312C36.629 15.1894 36.7943 14.8734 36.8799 14.5285L37.0358 13.9018H31.3215H25.6071L25.4566 14.5855C25.374 14.9616 25.2116 15.2692 25.0961 15.2692C24.9804 15.2692 24.8858 15.5769 24.8858 15.9529C24.8858 16.4087 24.7717 16.6366 24.5434 16.6366C24.2957 16.6366 24.2009 16.8907 24.2009 17.5553C24.2009 18.1617 24.0845 18.5186 23.8584 18.6052C23.6632 18.6799 23.516 19.02 23.516 19.3958C23.516 19.8299 23.3991 20.0551 23.1735 20.0551C22.9263 20.0551 22.831 20.3083 22.831 20.9667C22.831 21.6251 22.7358 21.8783 22.4886 21.8783C22.2493 21.8783 22.1461 22.1189 22.1461 22.6759C22.1461 23.2329 22.0429 23.4736 21.8037 23.4736C21.5564 23.4736 21.4612 23.7268 21.4612 24.3852C21.4612 25.0436 21.366 25.2968 21.1187 25.2968C20.8651 25.2968 20.7763 25.5627 20.7763 26.3223C20.7763 27.0819 20.6874 27.3478 20.4338 27.3478C20.2078 27.3478 20.0913 27.5737 20.0913 28.0126C20.0913 28.3782 19.982 28.7136 19.8482 28.7581C19.7146 28.8025 19.547 29.2727 19.4758 29.8028C19.3578 30.6815 19.2886 30.7663 18.6913 30.7663C18.1201 30.7663 18.0365 30.6815 18.0365 30.1015C18.0365 29.736 17.9272 29.4005 17.7934 29.3561C17.6598 29.3116 17.4922 28.8415 17.421 28.3114C17.3402 27.7111 17.1737 27.3478 16.979 27.3478C16.7861 27.3478 16.6667 27.0937 16.6667 26.6831C16.6667 26.3175 16.5614 25.9834 16.4329 25.9406C16.3043 25.898 16.1329 25.4545 16.0516 24.9551C15.9705 24.4558 15.7674 23.9109 15.6005 23.7441C15.4333 23.5775 15.2968 23.2432 15.2968 23.0016C15.2968 22.7598 15.2073 22.562 15.0977 22.562C14.9881 22.562 14.8329 22.1518 14.7525 21.6504C14.6721 21.149 14.5164 20.7388 14.4062 20.7388C14.2961 20.7388 14.1386 20.3798 14.0562 19.9411C13.9737 19.5024 13.8082 19.1435 13.6884 19.1435C13.5685 19.1435 13.4703 18.8431 13.4703 18.476C13.4703 18.1091 13.3162 17.6549 13.1279 17.4668C12.9395 17.2788 12.7854 16.8686 12.7854 16.5552C12.7854 16.2419 12.6313 15.8317 12.4429 15.6437C12.2546 15.4556 12.1005 14.9868 12.1005 14.6017V13.9018H6.05023C0.824429 13.9018 0 13.9483 0 14.2437ZM53.5991 22.9706C53.6498 23.1219 53.9906 23.2457 54.3568 23.2457C54.7966 23.2457 55.0228 23.3619 55.0228 23.5875C55.0228 23.7755 55.1769 23.9294 55.3653 23.9294C55.5537 23.9294 55.7078 24.0832 55.7078 24.2712C55.7078 24.4592 55.8619 24.6131 56.0502 24.6131C56.2386 24.6131 56.3927 24.7669 56.3927 24.9549C56.3927 25.1429 56.5468 25.2968 56.7352 25.2968C56.9635 25.2968 57.0776 25.5247 57.0776 25.9805C57.0776 26.4363 57.1918 26.6641 57.4201 26.6641C57.7027 26.6641 57.7626 27.0819 57.7626 29.0571C57.7626 31.0323 57.7027 31.45 57.4201 31.45C57.2059 31.45 57.0776 31.6661 57.0776 32.0268C57.0776 32.3443 56.9235 32.6629 56.7352 32.7349C56.5468 32.8072 56.3927 33.0091 56.3927 33.1836C56.3927 33.3582 56.2386 33.5011 56.0502 33.5011C55.8619 33.5011 55.7078 33.6037 55.7078 33.729C55.7078 33.8544 55.5537 33.9569 55.3653 33.9569C55.1769 33.9569 55.0228 34.1096 55.0228 34.296C55.0228 34.5155 54.7005 34.6866 54.1096 34.781C53.6073 34.8612 53.1963 35.0162 53.1963 35.1256C53.1963 35.235 52.4258 35.3243 51.484 35.3243C50.5422 35.3243 49.7717 35.2299 49.7717 35.1144C49.7717 34.9991 49.4635 34.8371 49.0868 34.7546C48.71 34.6721 48.4018 34.51 48.4018 34.3947C48.4018 34.2792 48.2838 34.1848 48.1395 34.1848C47.8137 34.1848 46.4925 32.8448 46.2856 32.3046C46.2018 32.0852 46.0272 31.9058 45.8975 31.9058C45.768 31.9058 45.6621 31.4924 45.6621 30.9872C45.6621 30.3807 45.5457 30.0238 45.3196 29.9372C45.0963 29.8515 44.9772 29.4972 44.9772 28.9188C44.9772 28.282 45.074 28.0315 45.3196 28.0315C45.5733 28.0315 45.6621 27.7656 45.6621 27.006C45.6621 26.2464 45.7509 25.9805 46.0046 25.9805C46.1929 25.9805 46.347 25.8266 46.347 25.6386C46.347 25.4506 46.4386 25.2968 46.5507 25.2968C46.6626 25.2968 46.8183 25.042 46.8966 24.7304C46.9829 24.3872 47.2559 24.1099 47.5897 24.0262C47.8927 23.9503 48.1961 23.7436 48.2639 23.567C48.332 23.3902 48.6475 23.2457 48.9655 23.2457C49.2833 23.2457 49.5434 23.1506 49.5434 23.0344C49.5434 22.6996 50.2224 22.5882 51.9249 22.6438C52.9171 22.6762 53.5416 22.7981 53.5991 22.9706ZM121.423 23.0317C121.465 23.1495 121.799 23.2457 122.165 23.2457C122.605 23.2457 122.831 23.3619 122.831 23.5875C122.831 23.7755 122.985 23.9294 123.174 23.9294C123.362 23.9294 123.516 24.0832 123.516 24.2712C123.516 24.4592 123.67 24.6131 123.858 24.6131C124.047 24.6131 124.201 24.7669 124.201 24.9549C124.201 25.1429 124.355 25.2968 124.543 25.2968C124.732 25.2968 124.886 25.4579 124.886 25.6548C124.886 25.8519 125.04 26.1669 125.228 26.3549C125.489 26.6149 125.571 27.2647 125.571 29.0733C125.571 31.0341 125.511 31.45 125.228 31.45C125.014 31.45 124.886 31.6661 124.886 32.0268C124.886 32.3443 124.732 32.6629 124.543 32.7349C124.355 32.8072 124.201 33.0091 124.201 33.1836C124.201 33.3582 124.047 33.5011 123.858 33.5011C123.67 33.5011 123.516 33.6037 123.516 33.729C123.516 33.8544 123.362 33.9569 123.174 33.9569C122.985 33.9569 122.831 34.0973 122.831 34.2687C122.831 34.4631 122.467 34.6292 121.866 34.7099C121.335 34.781 120.864 34.9483 120.819 35.0816C120.722 35.3728 118.721 35.4116 118.721 35.1224C118.721 35.0112 118.259 34.851 117.694 34.7664C117.129 34.6819 116.667 34.5232 116.667 34.4141C116.667 34.3049 116.451 34.1472 116.187 34.0638C115.574 33.8694 114.928 33.224 114.733 32.6121C114.65 32.3489 114.485 32.1337 114.368 32.1337C114.251 32.1337 114.155 31.9359 114.155 31.6941C114.155 31.4525 114.001 31.1009 113.813 30.9129C113.429 30.53 113.311 27.3478 113.681 27.3478C113.796 27.3478 113.958 27.0402 114.041 26.6641C114.124 26.2881 114.278 25.9805 114.384 25.9805C114.489 25.9805 114.643 25.6728 114.726 25.2968C114.809 24.9207 115.022 24.6131 115.201 24.6131C115.379 24.6131 115.525 24.4592 115.525 24.2712C115.525 24.0832 115.679 23.9294 115.868 23.9294C116.056 23.9294 116.21 23.8279 116.21 23.7042C116.21 23.5802 116.621 23.4134 117.123 23.3332C117.626 23.253 118.037 23.1051 118.037 23.0046C118.037 22.549 121.261 22.575 121.423 23.0317ZM155.665 23.003C155.709 23.1365 156.045 23.2457 156.412 23.2457C156.851 23.2457 157.078 23.3619 157.078 23.5875C157.078 23.7833 157.283 23.9294 157.559 23.9294C158.204 23.9294 159.124 24.8307 159.129 25.4677C159.131 25.7699 159.273 25.9805 159.475 25.9805C159.701 25.9805 159.817 26.2063 159.817 26.6452C159.817 27.0108 159.946 27.3526 160.103 27.4051C160.494 27.5359 160.489 30.5808 160.098 30.7109C159.944 30.7622 159.817 31.0553 159.817 31.3623C159.817 31.669 159.663 31.9792 159.475 32.0512C159.287 32.1235 159.132 32.3174 159.132 32.4824C159.132 32.8746 157.816 34.1848 157.421 34.1848C157.253 34.1848 157.079 34.294 157.035 34.4275C156.99 34.5608 156.519 34.7281 155.988 34.7992C155.457 34.8703 155.023 35.0176 155.023 35.1265C155.023 35.2352 154.56 35.3243 153.995 35.3243C153.43 35.3243 152.968 35.2229 152.968 35.0991C152.968 34.9752 152.557 34.8083 152.055 34.7281C151.553 34.6479 151.142 34.4897 151.142 34.3765C151.142 34.2632 150.962 34.1028 150.742 34.02C150.137 33.7921 149.17 32.7563 148.973 32.1248C148.876 31.8165 148.694 31.4979 148.568 31.4174C147.96 31.0273 148.14 25.9805 148.763 25.9805C148.941 25.9805 149.087 25.8266 149.087 25.6386C149.087 25.4506 149.189 25.2968 149.315 25.2968C149.441 25.2968 149.543 25.1429 149.543 24.9549C149.543 24.7669 149.697 24.6131 149.886 24.6131C150.074 24.6131 150.228 24.4592 150.228 24.2712C150.228 24.0832 150.371 23.9294 150.546 23.9294C150.721 23.9294 150.924 23.7755 150.996 23.5875C151.073 23.3877 151.415 23.2457 151.819 23.2457C152.2 23.2457 152.511 23.15 152.511 23.0328C152.511 22.5554 155.506 22.5271 155.665 23.003ZM176.484 30.9899C176.484 31.1127 176.204 31.2834 175.862 31.3691C175.203 31.5343 173.059 33.4899 173.059 33.9264C173.059 34.0686 172.965 34.1848 172.849 34.1848C172.734 34.1848 172.571 34.4925 172.489 34.8685C172.406 35.2445 172.244 35.5522 172.128 35.5522C172.012 35.5522 171.918 36.5265 171.918 37.7172C171.918 38.9401 172.013 39.8823 172.136 39.8823C172.256 39.8823 172.421 40.2412 172.504 40.6799C172.589 41.1369 172.789 41.4776 172.971 41.4776C173.145 41.4776 173.288 41.5883 173.288 41.7235C173.288 41.8586 173.739 42.4197 174.29 42.9703C175.03 43.7085 175.539 44.0104 176.231 44.121C176.747 44.2032 177.169 44.36 177.169 44.4694C177.169 44.5788 178.042 44.6681 179.11 44.6681C180.177 44.6681 181.05 44.5738 181.05 44.4583C181.05 44.3429 181.379 44.1763 181.782 44.0881C182.626 43.9031 185.001 41.6569 185.274 40.7861C185.371 40.4771 185.553 40.158 185.679 40.0769C185.81 39.993 185.909 38.8508 185.909 37.4148C185.909 35.3877 185.836 34.8273 185.534 34.526C185.328 34.3204 185.16 34.0166 185.16 33.8512C185.16 33.6855 185.006 33.4909 184.817 33.4186C184.629 33.3466 184.475 33.1745 184.475 33.0362C184.475 32.7174 184.022 32.2666 183.505 32.071C183.285 31.9881 183.105 31.8254 183.105 31.7098C183.105 31.5941 182.848 31.435 182.534 31.3564C182.22 31.2777 181.963 31.1127 181.963 30.9899C181.963 30.8561 180.863 30.7663 179.224 30.7663C177.585 30.7663 176.484 30.8561 176.484 30.9899ZM79.6233 47.5492C79.4037 47.6126 79.2237 47.7594 79.2237 47.8754C79.2237 47.9916 78.9155 48.0866 78.5388 48.0866C78.0822 48.0866 77.8539 48.2006 77.8539 48.4285C77.8539 48.6564 77.6256 48.7703 77.1689 48.7703C76.7123 48.7703 76.484 48.8843 76.484 49.1122C76.484 49.3002 76.3299 49.454 76.1416 49.454C75.9532 49.454 75.7991 49.6079 75.7991 49.7959C75.7991 49.9839 75.645 50.1377 75.4566 50.1377C75.2283 50.1377 75.1142 50.3656 75.1142 50.8214C75.1142 51.2772 75 51.5051 74.7717 51.5051C74.518 51.5051 74.4292 51.7711 74.4292 52.5307C74.4292 53.0947 74.3324 53.5562 74.2139 53.5562C74.0957 53.5562 73.9674 53.9922 73.9285 54.5248C73.8587 55.4886 73.8537 55.4936 72.8881 55.5633C72.3388 55.6032 71.9119 55.7513 71.9039 55.9052C71.8794 56.3831 71.8731 60.0363 71.8959 60.4501C71.9132 60.7676 72.1274 60.849 72.9452 60.849H73.9726V66.7499C73.9726 71.9207 74.0173 72.668 74.3338 72.7893C74.8037 72.9693 79.5342 72.9693 80.0041 72.7893C80.3205 72.668 80.3653 71.9207 80.3653 66.7499V60.849H82.4201H84.4749V58.2281V55.6073H82.5477C81.4877 55.6073 80.5669 55.5207 80.5016 55.4149C80.2753 55.0496 80.6484 53.5562 80.966 53.5562C81.1379 53.5562 81.2785 53.4024 81.2785 53.2144C81.2785 52.9409 81.621 52.8725 82.9909 52.8725H84.7032V50.4796C84.7032 48.567 84.6384 48.0866 84.3797 48.0866C84.2018 48.0866 84.0137 47.9588 83.9614 47.8024C83.8644 47.5119 80.447 47.3125 79.6233 47.5492ZM105.936 55.1253C105.936 55.236 105.371 55.3974 104.68 55.4835C103.99 55.5697 103.425 55.7354 103.425 55.8516C103.425 55.9678 103.282 56.0631 103.109 56.0631C102.935 56.0631 102.739 56.2682 102.674 56.5189C102.593 56.8268 102.362 56.9747 101.962 56.9747C101.456 56.9747 101.37 56.8749 101.37 56.291V55.6073H98.4263C95.9527 55.6073 95.4605 55.6649 95.3441 55.9678C95.1639 56.4362 95.1689 71.7427 95.3493 72.4148C95.4831 72.913 95.571 72.9276 98.4285 72.9276H101.37V67.9138C101.37 65.0118 101.458 62.9 101.58 62.9C101.696 62.9 101.858 62.5924 101.941 62.2163C102.023 61.8403 102.237 61.5327 102.415 61.5327C102.594 61.5327 102.74 61.3788 102.74 61.1908C102.74 60.9283 103.032 60.849 103.995 60.849C104.959 60.849 105.251 60.9283 105.251 61.1908C105.251 61.3788 105.393 61.5327 105.567 61.5327C106.082 61.5327 106.158 62.3059 106.161 67.6046C106.164 71.9941 106.211 72.6689 106.526 72.7893C106.724 72.8654 108.06 72.9276 109.494 72.9276C111.659 72.9276 112.1 72.8697 112.1 72.5857C112.1 72.3977 112.229 72.2439 112.386 72.2441C112.608 72.2444 112.656 71.0021 112.6 66.6036C112.56 63.3599 112.438 60.9305 112.315 60.887C112.197 60.8451 112.1 60.2523 112.1 59.5693C112.1 58.6759 112.004 58.291 111.758 58.1967C111.57 58.1244 111.416 57.9225 111.416 57.7479C111.416 57.5734 111.261 57.4305 111.073 57.4305C110.864 57.4305 110.731 57.2181 110.731 56.8853C110.731 56.4815 110.569 56.2999 110.105 56.1836C109.761 56.0975 109.416 55.9248 109.339 55.7999C109.261 55.675 108.772 55.5157 108.252 55.4462C107.732 55.3764 107.306 55.2303 107.306 55.1214C107.306 55.0127 106.998 54.9236 106.621 54.9236C106.244 54.9236 105.936 55.0143 105.936 55.1253ZM121.005 55.1376C121.005 55.2552 120.542 55.4206 119.977 55.5052C119.412 55.5897 118.95 55.75 118.95 55.8612C118.95 55.9722 118.792 56.0631 118.6 56.0631C118.408 56.0631 118.191 56.2169 118.119 56.4049C118.047 56.5929 117.853 56.7468 117.687 56.7468C117.284 56.7468 115.982 58.0656 115.982 58.4736C115.982 58.652 115.887 58.7979 115.771 58.7979C115.656 58.7979 115.494 59.1055 115.411 59.4816C115.328 59.8576 115.179 60.1653 115.08 60.1653C114.981 60.1653 114.842 60.599 114.771 61.1288C114.7 61.6589 114.532 62.1291 114.398 62.1735C114.079 62.2795 114.071 66.2524 114.389 66.3584C114.518 66.401 114.689 66.8445 114.77 67.3438C114.851 67.8432 115.055 68.3881 115.221 68.5549C115.389 68.7215 115.525 69.0045 115.525 69.1834C115.525 69.3626 115.62 69.5091 115.735 69.5091C115.851 69.5091 116.013 69.8168 116.096 70.1928C116.179 70.5688 116.392 70.8765 116.571 70.8765C116.749 70.8765 116.895 71.0303 116.895 71.2183C116.895 71.431 117.11 71.5602 117.466 71.5602C117.821 71.5602 118.037 71.6894 118.037 71.902C118.037 72.0901 118.198 72.2439 118.395 72.2439C118.593 72.2439 118.908 72.3977 119.097 72.5857C119.363 72.8512 120.044 72.9276 122.146 72.9276C124.248 72.9276 124.93 72.8512 125.196 72.5857C125.384 72.3977 125.7 72.2439 125.897 72.2439C126.094 72.2439 126.256 72.0901 126.256 71.902C126.256 71.6741 126.484 71.5602 126.941 71.5602C127.55 71.5602 127.626 71.6361 127.626 72.2439V72.9276H130.594H133.562V64.2674V55.6073H130.609H127.656L127.584 56.234C127.526 56.7349 127.406 56.8496 126.988 56.8047C126.7 56.7739 126.237 56.5063 125.96 56.2103C125.637 55.8648 125.068 55.6148 124.372 55.5118C123.776 55.4236 123.288 55.2552 123.288 55.1376C123.288 55.0198 122.774 54.9236 122.146 54.9236C121.518 54.9236 121.005 55.0198 121.005 55.1376ZM146.347 55.1214C146.347 55.2303 145.913 55.3776 145.382 55.4487C144.851 55.5198 144.38 55.6871 144.335 55.8204C144.291 55.9539 144.109 56.0631 143.931 56.0631C143.753 56.0631 143.607 56.2051 143.607 56.3783C143.607 56.7074 142.754 57.0383 142.426 56.8363C142.322 56.7723 142.237 56.4697 142.237 56.1636V55.6073H139.269H136.301V64.2674V72.9276H139.269C141.939 72.9276 142.239 72.8875 142.249 72.5288C142.255 72.3095 142.281 70.0875 142.306 67.5911C142.34 64.1959 142.424 63.0281 142.637 62.957C142.794 62.9048 142.922 62.563 142.922 62.1974C142.922 61.7585 143.039 61.5327 143.265 61.5327C143.453 61.5327 143.607 61.3788 143.607 61.1908C143.607 60.9248 143.912 60.849 144.977 60.849C146.007 60.849 146.347 60.9292 146.347 61.1719C146.347 61.3494 146.476 61.5372 146.632 61.5894C146.848 61.661 146.934 63.0605 146.986 67.3058L147.055 72.9276H149.961C152.589 72.9276 152.904 72.8838 153.26 72.4693C153.608 72.0625 153.653 71.3824 153.653 66.4489C153.653 62.4566 153.579 60.8622 153.39 60.7995C153.246 60.7514 153.079 60.1274 153.019 59.4132C152.945 58.5146 152.815 58.1142 152.597 58.1142C152.414 58.1142 152.283 57.8762 152.283 57.5444C152.283 57.1898 152.154 56.9747 151.941 56.9747C151.752 56.9747 151.598 56.832 151.598 56.6574C151.598 56.4831 151.341 56.2759 151.027 56.1973C150.713 56.1187 150.457 55.9601 150.457 55.8448C150.457 55.7294 149.994 55.566 149.429 55.4815C148.864 55.3969 148.402 55.2367 148.402 55.1255C148.402 55.0145 147.939 54.9236 147.374 54.9236C146.809 54.9236 146.347 55.0127 146.347 55.1214ZM163.242 55.1292C163.242 55.2422 162.626 55.4061 161.872 55.4933C161.119 55.5806 160.502 55.7363 160.502 55.8395C160.502 55.9425 160.194 56.0945 159.817 56.177C159.441 56.2595 159.132 56.4216 159.132 56.5369C159.132 56.6524 158.978 56.7468 158.79 56.7468C158.602 56.7468 158.447 56.9006 158.447 57.0886C158.447 57.2766 158.293 57.4305 158.105 57.4305C157.917 57.4305 157.763 57.5843 157.763 57.7723C157.763 57.9603 157.608 58.1142 157.42 58.1142C157.232 58.1142 157.078 58.268 157.078 58.456C157.078 58.644 156.924 58.7979 156.735 58.7979C156.507 58.7979 156.393 59.0258 156.393 59.4816C156.393 59.9374 156.279 60.1653 156.05 60.1653C155.784 60.1653 155.708 60.467 155.708 61.5137C155.708 62.3898 155.608 62.8953 155.422 62.957C155.242 63.0172 155.137 63.4976 155.137 64.2674C155.137 65.0373 155.242 65.5177 155.422 65.5779C155.604 65.6382 155.708 66.1223 155.708 66.9072C155.708 67.8525 155.788 68.1417 156.05 68.1417C156.279 68.1417 156.393 68.3696 156.393 68.8254C156.393 69.2812 156.507 69.5091 156.735 69.5091C156.924 69.5091 157.078 69.6629 157.078 69.851C157.078 70.039 157.232 70.1928 157.42 70.1928C157.608 70.1928 157.763 70.3466 157.763 70.5347C157.763 70.7227 157.917 70.8765 158.105 70.8765C158.293 70.8765 158.447 71.0303 158.447 71.2183C158.447 71.4064 158.602 71.5602 158.79 71.5602C158.978 71.5602 159.132 71.714 159.132 71.902C159.132 72.1172 159.35 72.2439 159.719 72.2439C160.042 72.2439 160.461 72.3977 160.649 72.5857C160.876 72.8127 161.446 72.9276 162.345 72.9276C163.095 72.9276 163.699 73.0292 163.699 73.1555C163.699 73.2808 164.007 73.3834 164.384 73.3834C164.76 73.3834 165.068 73.2808 165.068 73.1555C165.068 73.0288 165.677 72.9276 166.438 72.9276C167.504 72.9276 167.808 72.8517 167.808 72.5857C167.808 72.3977 167.962 72.2439 168.151 72.2439C168.435 72.2439 168.493 71.8009 168.493 69.6231C168.493 67.5139 168.43 67.0022 168.17 67.0022C167.992 67.0022 167.806 67.1237 167.756 67.2721C167.641 67.6171 163.958 67.6454 163.738 67.3028C163.654 67.1713 163.354 66.9917 163.071 66.9038C162.789 66.8158 162.497 66.5018 162.423 66.2059C162.348 65.9099 162.143 65.6123 161.966 65.5446C161.742 65.4589 161.644 65.0341 161.644 64.1535C161.644 63.2729 161.742 62.8481 161.966 62.7624C162.143 62.6947 162.347 62.4016 162.42 62.1111C162.499 61.7972 162.785 61.5249 163.126 61.4397C163.441 61.3606 163.699 61.1954 163.699 61.0725C163.699 60.9428 164.562 60.849 165.753 60.849C167.428 60.849 167.808 60.9123 167.808 61.1908C167.808 61.3788 167.962 61.5327 168.151 61.5327C168.437 61.5327 168.493 61.0541 168.493 58.5923V55.652L167.123 55.4933C166.37 55.4061 165.753 55.2422 165.753 55.1292C165.753 55.0161 165.188 54.9236 164.498 54.9236C163.807 54.9236 163.242 55.0161 163.242 55.1292ZM177.854 55.1253C177.854 55.236 177.289 55.3974 176.598 55.4835C175.908 55.5697 175.342 55.7354 175.342 55.8516C175.342 55.9678 175.144 56.0631 174.902 56.0631C174.66 56.0631 174.308 56.2169 174.119 56.4049C173.931 56.5929 173.703 56.7468 173.612 56.7468C173.359 56.7468 171.918 58.2883 171.918 58.5586C171.918 58.6903 171.764 58.7979 171.575 58.7979C171.387 58.7979 171.233 58.9957 171.233 59.2375C171.233 59.4791 171.096 59.8134 170.929 59.98C170.762 60.1468 170.559 60.6917 170.478 61.191C170.397 61.6904 170.225 62.1339 170.097 62.1765C169.706 62.3066 169.801 66.0615 170.205 66.4651C170.394 66.6531 170.548 67.1586 170.548 67.5882C170.548 68.018 170.649 68.3696 170.772 68.3696C170.895 68.3696 171.06 68.626 171.139 68.9394C171.218 69.2527 171.425 69.5091 171.6 69.5091C171.775 69.5091 171.918 69.6629 171.918 69.851C171.918 70.039 172.021 70.1928 172.146 70.1928C172.272 70.1928 172.374 70.3466 172.374 70.5347C172.374 70.7227 172.529 70.8765 172.717 70.8765C172.905 70.8765 173.059 71.0303 173.059 71.2183C173.059 71.4082 173.262 71.5602 173.516 71.5602C173.77 71.5602 173.973 71.7122 173.973 71.902C173.973 72.1172 174.19 72.2439 174.56 72.2439C174.883 72.2439 175.301 72.3977 175.489 72.5857C175.717 72.8127 176.287 72.9276 177.185 72.9276C177.935 72.9276 178.539 73.0292 178.539 73.1555C178.539 73.2808 178.95 73.3834 179.452 73.3834C179.954 73.3834 180.365 73.2808 180.365 73.1555C180.365 73.0288 180.976 72.9276 181.742 72.9276C182.756 72.9276 183.154 72.8373 183.251 72.5857C183.326 72.3909 183.666 72.2439 184.043 72.2439C184.478 72.2439 184.703 72.1272 184.703 71.902C184.703 71.6894 184.919 71.5602 185.274 71.5602C185.629 71.5602 185.845 71.431 185.845 71.2183C185.845 71.0303 185.988 70.8765 186.163 70.8765C186.337 70.8765 186.545 70.6201 186.624 70.3068C186.702 69.9934 186.868 69.737 186.991 69.737C187.114 69.737 187.215 69.4305 187.215 69.056C187.215 68.4378 187.131 68.3616 186.301 68.2292C185.799 68.149 185.388 68.0002 185.388 67.8986C185.388 67.7969 184.926 67.6447 184.361 67.5601C183.796 67.4756 183.333 67.3154 183.333 67.2041C183.333 67.0932 183.025 67.0022 182.648 67.0022C182.272 67.0022 181.963 67.1048 181.963 67.2301C181.963 67.3555 181.806 67.458 181.614 67.458C181.421 67.458 181.205 67.6119 181.133 67.7999C181.034 68.0581 180.616 68.1417 179.428 68.1417C178.562 68.1417 177.854 68.0474 177.854 67.9318C177.854 67.8165 177.546 67.6545 177.169 67.572C176.55 67.4364 176.484 67.3359 176.484 66.5284V65.6348H182.192H187.9V63.2419C187.9 61.2667 187.84 60.849 187.557 60.849C187.342 60.849 187.215 60.632 187.215 60.263C187.215 59.9405 187.06 59.523 186.872 59.335C186.684 59.147 186.53 58.7954 186.53 58.5538C186.53 58.312 186.376 58.1142 186.187 58.1142C185.999 58.1142 185.845 57.9603 185.845 57.7723C185.845 57.5843 185.728 57.4305 185.586 57.4305C185.443 57.4305 185.092 57.1782 184.806 56.8698C184.52 56.5617 184.02 56.2429 183.695 56.1615C183.371 56.0802 183.105 55.9295 183.105 55.827C183.105 55.7242 182.54 55.5697 181.849 55.4835C181.159 55.3974 180.594 55.236 180.594 55.1253C180.594 55.0143 179.977 54.9236 179.224 54.9236C178.47 54.9236 177.854 55.0143 177.854 55.1253ZM86.7543 55.8922C86.7525 56.049 86.7461 59.8592 86.7406 64.3595C86.7324 70.8672 86.7915 72.5805 87.0294 72.7311C87.1941 72.8353 88.5361 72.9221 90.0114 72.9242C92.2454 72.9269 92.6941 72.8704 92.6941 72.5857C92.6941 72.3977 92.7968 72.2439 92.9224 72.2439C93.0703 72.2439 93.1507 69.4277 93.1507 64.2513C93.1507 57.6281 93.0947 56.2026 92.8244 55.933C92.3826 55.4917 86.7598 55.4541 86.7543 55.8922ZM179.224 59.9374C179.224 60.0627 179.686 60.1653 180.251 60.1653C181.012 60.1653 181.279 60.2539 181.279 60.5071C181.279 60.6951 181.433 60.849 181.621 60.849C181.849 60.849 181.963 61.0769 181.963 61.5327V62.2163H179.224H176.484V61.5327C176.484 61.0769 176.598 60.849 176.826 60.849C177.015 60.849 177.169 60.6951 177.169 60.5071C177.169 60.2792 177.397 60.1653 177.854 60.1653C178.231 60.1653 178.539 60.0627 178.539 59.9374C178.539 59.812 178.693 59.7095 178.881 59.7095C179.07 59.7095 179.224 59.812 179.224 59.9374ZM125.571 61.0725C125.571 61.1954 125.829 61.3606 126.144 61.4397C126.484 61.5249 126.77 61.7972 126.849 62.1111C126.922 62.4016 127.127 62.6947 127.304 62.7624C127.527 62.8481 127.626 63.2729 127.626 64.1535C127.626 65.0341 127.527 65.4589 127.304 65.5446C127.127 65.6123 126.92 65.9151 126.844 66.2176C126.76 66.5508 126.482 66.8233 126.138 66.9095C125.826 66.9876 125.571 67.1303 125.571 67.2262C125.571 67.5159 124.259 67.6852 123.17 67.5362C122.526 67.448 122.146 67.2807 122.146 67.0852C122.146 66.9143 121.992 66.7743 121.804 66.7743C121.615 66.7743 121.461 66.6205 121.461 66.4325C121.461 66.2445 121.307 66.0906 121.119 66.0906C120.841 66.0906 120.776 65.7235 120.776 64.1535C120.776 62.5835 120.841 62.2163 121.119 62.2163C121.307 62.2163 121.461 62.0625 121.461 61.8745C121.461 61.6865 121.615 61.5327 121.804 61.5327C121.992 61.5327 122.146 61.3788 122.146 61.1908C122.146 60.9173 122.489 60.849 123.858 60.849C124.826 60.849 125.571 60.9463 125.571 61.0725Z" fill="#909090"/>
</svg>
